<?xml version="1.0" encoding="utf-8"?>
<!-- Generator: Adobe Illustrator 24.0.1, SVG Export Plug-In . SVG Version: 6.00 Build 0)  -->
<svg version="1.1" id="Calque_1" xmlns="http://www.w3.org/2000/svg" xmlns:xlink="http://www.w3.org/1999/xlink" x="0px" y="0px"
	 viewBox="0 0 55 47" style="enable-background:new 0 0 55 47;" xml:space="preserve">
<style type="text/css">
	.st0{fill:#ffffff;}
</style>
<g>
	<path class="st0" d="M47.25,33.03H34.34c0.12,0.41,0.2,0.83,0.2,1.26c0.01,0.6-0.12,1.19-0.33,1.74h13.05c0.84,0,1.52-0.67,1.52-1.5
		C48.77,33.7,48.09,33.03,47.25,33.03z"/>
	<path class="st0" d="M54.56,6.63c-0.29-0.38-0.74-0.6-1.22-0.6H16.11L15.02,1.2c-0.16-0.69-0.77-1.17-1.49-1.17H4.39
		c-0.84,0-1.52,0.67-1.52,1.5c0,0.83,0.68,1.5,1.52,1.5h7.92c0.11,0.51,1.91,8.48,3.43,15.18c0.62-0.28,1.3-0.44,1.99-0.44
		c1.28,0,2.52,0.5,3.4,1.38l11.05,10.88h15.08c0.68,0,1.28-0.44,1.46-1.09l6.09-21C54.94,7.49,54.85,7,54.56,6.63z"/>
</g>
<g>
	<g>
		<g>
			<g>
				<path class="st0" d="M0.5,32.62c-0.53,0-0.94,0.4-0.94,0.93v1.52c0,0.55,0.43,1.01,0.94,1.01h24.04l-8.41,8.38
					c-0.18,0.18-0.28,0.41-0.28,0.66c0,0.26,0.1,0.49,0.28,0.67l1.07,1.07c0.36,0.37,0.99,0.37,1.36,0l11.84-11.84
					c0.18-0.18,0.28-0.42,0.28-0.68c0-0.27-0.1-0.51-0.28-0.69L18.56,21.83c-0.36-0.36-1-0.36-1.35,0l-1.08,1.08
					c-0.18,0.18-0.28,0.42-0.28,0.68c0,0.26,0.1,0.52,0.28,0.7l8.33,8.34H0.5z"/>
			</g>
		</g>
	</g>
</g>
<path class="st0" d="M39.48,40.57c0,2.49,2.02,4.51,4.51,4.51c2.49,0,4.51-2.02,4.51-4.51c0-2.49-2.02-4.51-4.51-4.51
	C41.51,36.06,39.48,38.08,39.48,40.57z M43.99,39.06c0.83,0,1.5,0.67,1.5,1.5c0,0.83-0.67,1.5-1.5,1.5c-0.83,0-1.5-0.67-1.5-1.5
	C42.49,39.74,43.16,39.06,43.99,39.06z"/>
</svg>
