<?xml version="1.0" encoding="utf-8"?>
<!-- Generator: Adobe Illustrator 25.2.0, SVG Export Plug-In . SVG Version: 6.00 Build 0)  -->
<svg version="1.1" id="Calque_1" xmlns="http://www.w3.org/2000/svg" xmlns:xlink="http://www.w3.org/1999/xlink" x="0px" y="0px"
	 viewBox="0 0 200 170" style="enable-background:new 0 0 200 170;" xml:space="preserve">
<style type="text/css">
	.st0{fill:#000000;}
</style>
<g>
	<path class="st0" d="M47.1,51.6H9.4c-5.2,0-9.4-4.2-9.4-9.4V9.4C0,4.2,4.2,0,9.4,0h37.7c5.2,0,9.4,4.2,9.4,9.4v32.9
		C56.5,47.4,52.3,51.6,47.1,51.6z"/>
	<path class="st0" d="M190.7,51.6H73.6c-5.2,0-9.4-4.2-9.4-9.4V9.4c0-5.2,4.2-9.4,9.4-9.4h117.1c5.2,0,9.4,4.2,9.4,9.4v32.9
		C200,47.4,195.8,51.6,190.7,51.6z"/>
	<path class="st0" d="M47.1,110.5H9.4c-5.2,0-9.4-4.2-9.4-9.4V68.3c0-5.2,4.2-9.4,9.4-9.4h37.7c5.2,0,9.4,4.2,9.4,9.4v32.9
		C56.5,106.3,52.3,110.5,47.1,110.5z"/>
	<path class="st0" d="M190.7,110.5H73.6c-5.2,0-9.4-4.2-9.4-9.4V68.3c0-5.2,4.2-9.4,9.4-9.4h117.1c5.2,0,9.4,4.2,9.4,9.4v32.9
		C200,106.3,195.8,110.5,190.7,110.5z"/>
	<path class="st0" d="M47.1,169.4H9.4c-5.2,0-9.4-4.2-9.4-9.4v-32.9c0-5.2,4.2-9.4,9.4-9.4h37.7c5.2,0,9.4,4.2,9.4,9.4V160
		C56.5,165.2,52.3,169.4,47.1,169.4z"/>
	<path class="st0" d="M190.7,169.4H73.6c-5.2,0-9.4-4.2-9.4-9.4v-32.9c0-5.2,4.2-9.4,9.4-9.4h117.1c5.2,0,9.4,4.2,9.4,9.4V160
		C200,165.2,195.8,169.4,190.7,169.4z"/>
</g>
</svg>
