<?xml version="1.0" encoding="utf-8"?>
<!-- Generator: Adobe Illustrator 24.1.2, SVG Export Plug-In . SVG Version: 6.00 Build 0)  -->
<svg version="1.1"
	 id="svg3055" xmlns:cc="http://creativecommons.org/ns#" xmlns:dc="http://purl.org/dc/elements/1.1/" xmlns:inkscape="http://www.inkscape.org/namespaces/inkscape" xmlns:rdf="http://www.w3.org/1999/02/22-rdf-syntax-ns#" xmlns:sodipodi="http://sodipodi.sourceforge.net/DTD/sodipodi-0.dtd" xmlns:svg="http://www.w3.org/2000/svg"
	 xmlns="http://www.w3.org/2000/svg" xmlns:xlink="http://www.w3.org/1999/xlink" x="0px" y="0px" viewBox="0 0 300 145"
	 style="enable-background:new 0 0 300 145;" xml:space="preserve">
<style type="text/css">
	.st0{stroke:#000000;stroke-width:4.2846;stroke-miterlimit:17.1385;}
</style>
<sodipodi:namedview  bordercolor="#666666" borderopacity="1" fit-margin-bottom="0" fit-margin-left="0" fit-margin-right="0" fit-margin-top="0" gridtolerance="10" guidetolerance="10" id="namedview3057" inkscape:current-layer="svg3055" inkscape:cx="683.79515" inkscape:cy="196.42682" inkscape:guide-bbox="true" inkscape:pageopacity="0" inkscape:pageshadow="2" inkscape:window-height="703" inkscape:window-maximized="1" inkscape:window-width="1366" inkscape:window-x="0" inkscape:window-y="28" inkscape:zoom="0.35355339" objecttolerance="10" pagecolor="#ffffff" showgrid="false" showguides="true">
	</sodipodi:namedview>
<g id="g4372" transform="matrix(4.284637,0,0,4.284637,-0.08181877,-0.09865679)">
	<g id="g4244">
		<g id="g4202" transform="translate(2,-66)">
			<path id="path3915" inkscape:connector-curvature="0" sodipodi:nodetypes="ccccc" d="M-1.98,97.61V83.11l2.83-1.94v16.43H-1.98"
				/>
			<path id="path3917" inkscape:connector-curvature="0" sodipodi:nodetypes="ccccsccccccccccccccscccc" d="M17.82,89.27
				c0,1.37-0.21,2.57-0.62,3.62c-0.41,1.03-0.98,1.9-1.69,2.6c-0.72,0.7-1.56,1.23-2.54,1.59c-0.97,0.36-2.02,0.54-3.15,0.54H3.77
				V81.17h5.35c1.28,0,2.45,0.16,3.51,0.48c1.07,0.32,1.98,0.81,2.75,1.47c0.77,0.66,1.37,1.5,1.8,2.52
				C17.61,86.66,17.82,87.87,17.82,89.27 M14.36,89.27c0-0.96-0.13-1.78-0.4-2.46c-0.26-0.68-0.62-1.24-1.08-1.68
				c-0.47-0.44-1.03-0.77-1.68-0.98c-0.65-0.21-1.36-0.31-2.15-0.31H7.21v11.11h2.32c0.69,0,1.33-0.12,1.91-0.36
				c0.59-0.24,1.1-0.6,1.53-1.07c0.44-0.48,0.77-1.08,1.01-1.78C14.23,91.02,14.36,90.2,14.36,89.27"/>
			<path id="path3919" inkscape:connector-curvature="0" sodipodi:nodetypes="ccccccccccccc" d="M20.14,97.61V81.17h10v2.66h-7.18
				v4.13h6v2.66h-6v4.33h7.57v2.66H20.14"/>
			<path id="path3921" inkscape:connector-curvature="0" sodipodi:nodetypes="ccccccccccccccccccccc" d="M44.51,97.61l-1.46-4.2
				h-6.26l-1.46,4.2h-3.44l6.59-16.43h2.86l6.57,16.43H44.51 M40.07,86.1c-0.09-0.27-0.19-0.54-0.28-0.82
				c-0.09-0.28-0.16-0.53-0.23-0.76c-0.06-0.23-0.12-0.42-0.16-0.57c-0.04-0.15,0.53-0.23,0.53-0.24c-0.01,0.02,0.57,0.11,0.53,0.26
				c-0.04,0.15-0.09,0.33-0.16,0.56c-0.06,0.23-0.14,0.48-0.23,0.76c-0.09,0.27-0.17,0.54-0.27,0.82l-1.62,4.72h3.53L40.07,86.1"/>
			
				<path id="path3923" inkscape:connector-curvature="0" sodipodi:nodetypes="ccccscscccccscccccccccccscccccccccccccccccccccccc" d="
				M60.85,92.87c0,0.75-0.11,1.43-0.34,2.04c-0.22,0.61-0.56,1.13-1.04,1.56c-0.47,0.44-1.07,0.77-1.8,1.01
				c-0.72,0.23-1.59,0.35-2.6,0.35c-0.89,0-1.68-0.1-2.37-0.29c-0.68-0.19-1.26-0.48-1.75-0.86c-0.49-0.38-1.3-1.07-1.74-2.45
				l2.42-1.45c0.08,0.37,0.27,0.83,0.47,1.09c0.15,0.3,0.43,0.48,0.69,0.71c0.26,0.22,0.58,0.39,0.96,0.51
				c0.39,0.12,0.86,0.17,1.41,0.17c0.96,0,1.69-0.17,2.19-0.52c0.51-0.36,0.76-0.91,0.76-1.67c0-0.45-0.1-0.82-0.3-1.11
				c-0.2-0.29-0.47-0.52-0.82-0.71c-0.33-0.19-0.72-0.34-1.17-0.47c-0.44-0.12-0.89-0.24-1.38-0.36c0,0-0.38-0.11-1.15-0.34
				c-0.38-0.12-0.75-0.26-1.1-0.42c-0.34-0.16-0.66-0.36-0.97-0.58c-0.3-0.23-0.56-0.5-0.78-0.83c-0.22-0.33-0.39-0.72-0.51-1.17
				c-0.12-0.44-0.19-0.96-0.19-1.56c0-0.82,0.13-1.52,0.4-2.1c0.27-0.58,0.65-1.06,1.12-1.42c0.48-0.37,1.05-0.65,1.7-0.82
				c0.65-0.17,1.37-0.26,2.15-0.26c0.88,0,1.63,0.09,2.26,0.26c0.63,0.16,1.15,0.42,1.57,0.76c0.43,0.34,0.92,0.96,1.16,1.48
				l-2.34,1.48c-0.46-0.63-0.43-0.64-0.86-1c-0.43-0.36-1.04-0.54-1.84-0.54c-0.5,0-0.91,0.05-1.25,0.16
				c-0.33,0.1-0.59,0.24-0.78,0.42c-0.19,0.18-0.33,0.39-0.42,0.63c-0.08,0.23-0.12,0.48-0.12,0.75c0,0.4,0.08,0.74,0.23,1
				c0.16,0.26,0.39,0.47,0.68,0.65c0.29,0.17,0.63,0.32,1.03,0.44c0.4,0.12,0.84,0.24,1.32,0.36c0.42,0.11,0.84,0.23,1.25,0.35
				c0.41,0.12,0.8,0.26,1.18,0.42c0.38,0.16,0.73,0.36,1.06,0.59c0.33,0.23,0.61,0.52,0.84,0.86c0.24,0.33,0.43,0.73,0.56,1.2
				C60.78,91.68,60.85,92.23,60.85,92.87"/>
		</g>
		<g id="g4209" transform="translate(0,-66)">
			<path id="path3087" inkscape:connector-curvature="0" class="st0" d="M65.55,80.98v-8.05l4.49-3.3v8.02L65.55,80.98z"/>
			<path id="path3332-5" inkscape:connector-curvature="0" d="M62.95,68.05c0.01,0.69,1.15,1.25,2.55,1.25
				c1.39,0,2.51-0.56,2.52-1.25v1.21c-0.01,0.69-1.15,1.25-2.55,1.25c-1.39,0-2.51-0.56-2.52-1.25V68.05z"/>
		</g>
	</g>
</g>
</svg>
