<?xml version="1.0" encoding="utf-8"?>
<!-- Generator: Adobe Illustrator 24.1.2, SVG Export Plug-In . SVG Version: 6.00 Build 0)  -->
<svg version="1.1" id="Layer_1" xmlns="http://www.w3.org/2000/svg" xmlns:xlink="http://www.w3.org/1999/xlink" x="0px" y="0px"
	 viewBox="0 0 300 145" style="enable-background:new 0 0 300 145;" xml:space="preserve">
<style type="text/css">
	.st0{fill:#FFFFFF;}
</style>
<g>
	<path d="M274.23,43.66h-0.15c-1.23-0.15-2.47-0.31-3.7-0.31c-7.71,0-14.96,3.08-19.28,7.87l0.77-2.01
		c2.93-5.86,5.86-8.17,8.33-10.03c2.16-1.7,4.63-3.7,5.55-7.25c0.62-2.47,0.15-5.09-1.08-7.56c-2.31-4.16-7.87-6.94-11.72-8.02
		c-1.39-0.31-2.93-0.46-4.32-0.46c-9.25,0-17.58,6.79-21.13,13.42c-2.93,5.71-4.16,11.41-4.94,16.04
		c-9.87-0.46-18.82,5.71-23.75,15.27c-2.31-7.56-6.94-15.12-17.27-15.12c-3.24,0-7.09,0.93-10.33,2.62l-0.93,0.46l-2.31,1.54
		c-1.23-0.31-2.62-0.46-4.01-0.46c-2.93,0-5.55,0.77-7.71,2.31c-1.85,1.23-2.93,2.62-3.7,4.16c-4.01-5.4-10.64-8.48-18.51-8.48
		c-3.24,0-6.63,0.62-10.03,1.7c-5.4,1.7-10.18,5.71-13.73,11.11c-0.15-2.47-0.77-4.47-2.01-6.48c-0.46-0.77-1.23-1.85-2.62-2.93
		c3.86-0.46,8.64-2.16,12.18-5.86c3.08-3.08,4.47-7.09,4.32-11.57v-0.46c-0.77-6.48-5.4-10.64-11.72-10.64h-1.39
		c-2.62-1.85-5.24-2.31-7.09-2.31c-3.55,0-6.79,1.54-9.1,4.47c-5.24,6.32-4.01,17.43,2.78,23.6l0.15,0.15
		c-2.78,0.15-5.4,1.08-7.71,2.62c-1.23-1.39-2.62-2.62-4.32-3.55c-3.39-1.85-6.63-2.62-10.03-2.62c-5.55,0-10.18,2.47-14.04,5.24
		l-1.7-0.31c-2.78-0.46-5.86,0.15-8.48,1.39c-1.39-2.93-3.24-5.09-6.48-5.71c-2.62-0.46-6.02-0.62-9.72-0.15l-0.15-0.31
		c-0.62-1.7-1.23-3.55-1.85-5.71l0.46-0.15c2.01-0.62,4.63-1.23,8.64-1.23c2.47,0,5.24,0.31,8.33,0.77c2.47,0.46,5.4,1.23,8.17,2.01
		c4.78,1.23,7.56,2.01,10.18,2.01c2.01,0,4.01-0.46,5.55-1.54c1.85-1.23,4.16-3.39,4.94-7.4c1.23-5.71-1.54-12.34-4.16-16.19
		c-4.47-6.79-13.42-9.87-27.76-9.87c-1.39,0-2.93,0-4.47,0.15C20.66,8.64,5.55,15.58,2.31,25.61c-2.93,9.41,0.15,16.97,2.93,23.75
		l1.08,2.62C4.47,53.06,3.08,54.14,2,55.84v0.15H1.85v0.15c-3.7,6.48-0.77,16.35-0.31,17.43c1.23,4.16,3.39,6.79,6.32,8.17h0.15
		l0.46,0.31h0.15c2.16,0.77,4.47,0.62,6.32,0c2.16,12.65,0,22.21-1.39,27.45c-0.31,1.39-0.62,2.62-0.77,3.55
		c-0.93,7.56,1.39,15.27,6.32,20.98c3.7,4.16,8.48,6.63,13.11,6.63l0,0c3.24,0,6.32-1.08,8.64-3.39l0.15-0.15l0.46-0.46
		c5.24-5.71,6.48-21.44,4.47-38.71l0.93-0.31c1.23,4.47,3.55,8.64,7.09,11.41c2.78,2.16,5.71,2.62,8.33,2.62
		c3.24,0,6.17-1.23,8.17-3.55c3.7-4.16,3.7-10.33,3.24-15.89l-0.31-3.08l0.15,0.15l3.24,0.46c1.08,6.32,3.86,12.34,9.87,16.81
		c3.24,2.31,7.56,5.09,13.42,5.09c5.4,0,10.49-2.31,16.19-5.86l3.24,2.16c4.47,2.62,10.49,4.16,16.35,4.16
		c5.24,0,10.33-1.08,14.81-3.39c2.01-0.93,3.86-2.16,5.4-3.7c2.62,3.24,6.32,5.55,11.26,6.63l2.62,0.31c3.08,0,5.86-1.23,7.87-3.55
		c1.54-1.7,2.31-3.55,2.78-5.86c3.08,6.79,8.02,10.33,14.65,10.95l1.7,0.15c5.55,0,10.33-2.47,12.49-6.63
		c4.01,2.01,8.33,3.08,12.96,3.08c2.01,0,3.86-0.15,5.86-0.62c3.86-0.77,7.09-2.31,10.03-4.78c5.86,3.55,12.03,4.47,16.19,4.78
		l3.39,0.15c12.03,0,22.06-5.4,25.45-13.73c2.31-5.71,1.39-11.72-2.31-17.43c5.86-2.31,10.95-7.71,12.03-13.88
		C294.9,56.77,290.58,46.74,274.23,43.66"/>
	<path class="st0" d="M220.71,99.64c-9.41,0-14.96-5.71-16.81-8.33c-2.93-3.7-4.01-9.25-3.55-16.97
		c0.77-13.26,9.25-23.75,19.28-23.75l1.85,0.15c2.78,0.31,4.16,0.93,6.02,2.31c0.62-8.17,1.39-15.42,5.09-22.83
		c1.85-3.7,7.71-9.1,14.04-9.1l2.47,0.31c2.62,0.62,5.86,2.62,6.79,4.16l0.31,1.54c-0.15,0.93-1.23,1.7-2.78,2.93
		c-2.62,2.01-6.94,5.24-10.64,12.8c-4.47,8.95-7.25,34.86-0.31,44.88c1.85,2.78,4.78,4.32,8.33,4.32c3.39,0,6.63-1.54,8.79-3.86
		c2.01-2.31,3.39-6.17-3.24-13.57c-5.4-6.17-6.63-11.41-3.7-17.74c2.31-4.78,9.1-8.64,15.42-8.64l2.47,0.15
		c9.41,1.7,14.19,6.32,13.11,12.49c-0.77,4.32-5.71,8.33-10.03,8.33c-1.7,0-4.32-0.62-6.02-3.7c-1.23-2.01,0.62-3.86,2.01-5.24
		l1.39-1.7L269.91,58l-3.08-0.46c-3.24,0-5.24,1.7-5.86,5.09c-0.77,4.94,3.55,9.1,7.25,12.65l1.85,1.85
		c4.47,4.47,6.17,9.1,4.32,13.42c-2.16,5.4-9.25,8.79-18.05,8.79l-2.78-0.15c-5.55-0.46-12.49-1.7-18.05-8.33
		c-2.01,3.39-4.47,7.4-10.33,8.48C223.64,99.49,222.1,99.64,220.71,99.64 M221.17,61.7c-5.71,0-9.25,6.32-10.03,12.49
		c-0.46,4.47,0.46,8.64,2.78,11.11c2.01,2.31,5.09,3.24,8.79,2.93c1.54-0.15,2.93-0.77,4.32-1.7c1.08-0.77,2.31-2.01,3.86-3.7
		c-1.08-2.78-1.85-5.71-2.31-9.25c-0.15-1.54-0.31-3.08-0.46-4.63c-0.15-1.39-0.31-2.78-0.46-4.16l-1.54-1.39l-2.16-1.23
		L221.17,61.7z"/>
	<path class="st0" d="M195.26,103.19L195.26,103.19h-1.08c-7.25-0.62-10.03-6.94-11.11-10.64c-0.77-2.62-0.62-5.4-0.46-8.64
		c0.15-3.39,0.31-7.25-0.31-11.88c-0.62-4.01-1.23-6.17-3.39-8.02c-0.93-0.77-2.16-1.23-3.55-1.23c-2.16,0-4.16,1.08-6.02,2.93
		c-1.23,4.32-0.46,8.95,0.15,12.65l0.46,3.08l0.31,3.24c0.93,7.25,1.7,14.04-0.31,16.35l-2.62,0.77
		c-11.72-2.78-9.56-14.19-8.64-19.13c1.7-8.79,2.31-15.12-0.31-19.28c-1.54-2.62-2.78-5.24,0.15-7.25c0.93-0.62,2.01-0.93,3.24-0.93
		c2.01,0,3.86,0.77,4.78,1.85l1.08-0.93c1.23-0.93,2.78-2.16,4.78-3.24c2.47-1.23,4.78-1.85,6.94-1.85
		c9.87,0,10.95,14.5,11.57,22.21c0,1.39,0.15,2.47,0.31,3.39l0.15,1.08c0.77,6.17,1.23,9.87,3.55,13.57
		c1.85,2.93,2.31,3.39,3.39,4.47l1.54,1.7l0.93,3.55C200.04,102.11,197.88,103.19,195.26,103.19"/>
	<path class="st0" d="M134.03,101.65L134.03,101.65c-4.47,0-8.95-1.08-12.34-3.08c-3.24-1.85-4.63-3.39-6.32-5.55
		c-7.4,5.24-12.65,8.17-17.27,8.17c-2.78,0-5.4-1.08-8.64-3.55c-7.56-5.71-7.87-15.12-6.94-24.52c0.62-7.25,4.01-19.59,12.18-19.74
		h0.15c2.01,0,3.55,0.62,4.32,2.01c1.85,2.78,0.62,8.33-3.55,16.97c-3.55,7.4-4.47,12.49,1.39,16.66c2.62,1.85,7.87,1.23,14.5-1.85
		c-2.62-5.55-2.47-13.11,0.46-20.21c2.62-6.48,7.25-11.26,12.18-12.8c2.62-0.77,5.24-1.23,7.71-1.23c6.17,0,11.11,2.62,13.26,7.09
		c3.08,6.32-3.24,14.96-7.71,18.82c-4.78,4.01-8.33,6.32-11.57,8.17c1.7,2.93,6.17,6.02,11.11,6.02c2.93,0,5.4-0.93,7.71-2.93
		c1.23-1.08,2.16-2.47,2.93-3.7c1.08-1.85,2.01-3.39,3.7-3.39h0.15c0.93,0,1.7,0.93,2.01,2.47c0.62,3.39-0.93,10.03-8.02,13.57
		C141.89,100.72,138.04,101.65,134.03,101.65 M129.09,63.09l-3.7,1.23c-4.63,3.08-5.4,12.18-2.93,17.74
		c4.01-2.16,6.94-4.16,9.25-6.48c2.47-2.47,3.55-5.4,2.93-8.48C134.34,65.71,132.18,63.09,129.09,63.09"/>
	<path class="st0" d="M60.15,101.19c-1.08,0-2.47-0.46-4.32-1.54c-6.63-3.86-5.4-10.95-4.47-16.97c0.31-1.39,0.46-2.78,0.62-3.86
		c0.77-7.71-0.15-12.96-3.08-16.5c-1.08-1.39-1.23-2.78-0.62-4.32c1.08-2.16,4.01-3.55,6.63-3.24l3.08,2.16
		c5.24-4.32,9.1-6.94,13.57-6.94c2.01,0,4.01,0.62,6.17,1.7c3.55,2.01,4.32,6.32,3.39,9.72c-0.77,2.93-3.08,6.17-7.25,6.17
		l-2.62-0.46c-2.31-0.62-2.01-2.93-1.85-4.47c0.31-2.01,0.31-2.93-1.08-3.08h-0.46c-2.16,0-4.16,2.16-5.24,4.01
		c-2.16,4.16-0.62,14.81,0.31,21.9c0.31,2.01,0.46,3.7,0.62,5.09c0.46,5.24,0.15,8.33-1.23,9.72L60.15,101.19z"/>
	<path class="st0" d="M30.23,129.87L30.23,129.87c-2.31,0-4.94-1.39-7.09-4.01c-3.39-3.86-5.09-9.41-4.47-14.65l0.62-2.78
		c1.54-6.48,5.09-21.59-1.08-40.72c-2.31,0.77-4.01,1.85-5.4,2.62c-1.7,0.93-2.78,1.54-3.7,1.23c-0.77-0.31-1.54-1.54-2.16-3.39
		c-0.93-3.08-1.7-8.64-0.31-11.11c0.93-1.39,3.7-2.31,7.71-3.39c-0.93-4.01-2.31-7.4-3.55-10.64c-2.47-6.02-4.63-11.41-2.62-18.05
		c1.7-5.55,13.26-11.88,31.31-12.49c13.88-0.46,22.21,1.54,25.45,6.32c1.85,2.78,3.55,7.25,2.93,10.18l-1.39,2.31l-1.23,0.31
		c-1.54,0-4.63-0.77-8.02-1.7c-2.93-0.77-6.17-1.7-8.95-2.16c-3.39-0.62-6.63-0.93-9.72-0.93c-5.09,0-8.48,0.93-10.95,1.54
		c-5.24,1.54-7.25,4.78-6.02,9.41c0.77,2.62,1.39,4.78,2.16,6.79c0.77,2.16,1.39,4.16,2.01,6.79l1.23-0.31
		c2.16-0.46,4.47-0.93,6.94-0.93l3.24,0.31c3.55,0.62,7.25,6.48,6.94,8.95l-1.7,1.54h-0.15l-2.47-0.15c-3.86,0-6.63,0.77-10.49,2.78
		c9.1,30.54,8.79,60,4.16,64.93C32.69,129.57,31.46,129.87,30.23,129.87"/>
	<path class="st0" d="M101.48,40.42L101.48,40.42l-2.47-0.77c-3.86-3.7-4.47-10.03-2.16-12.8l2.93-1.54c1.08,0,2.78,0.62,4.47,3.08
		c1.54-0.62,2.93-0.93,3.86-0.93c2.16,0,3.55,1.23,3.86,3.7c0,2.16-0.62,4.01-2.16,5.55C107.5,39.34,103.95,40.42,101.48,40.42"/>
	<path d="M299.99,17.9c-0.46-3.08-6.63-3.55-11.26-2.78l-3.08,1.23l-0.93,0.77l-0.62-0.93l-1.08,0.15v-1.08l-0.93-3.39
		c-2.16-4.16-6.32-8.79-9.1-7.25c-0.77,0.46-0.62,2.01-0.77,4.16c0,1.54-0.62,3.08,0,4.32l2.93,1.7l-3.24,0.77
		c-3.24,2.93-2.62,9.56,2.01,9.87c2.93,0.15,4.32-1.54,6.02-3.24l0.62,1.08l1.23-0.15c-0.31,2.31-0.77,4.63,1.08,6.79
		c3.08,3.55,8.64,0,9.1-4.32c0.15-1.23-1.54-2.78-1.39-2.93l3.08,1.23c1.39-0.15,2.16-1.7,3.39-2.62
		C298.91,19.75,300.14,18.82,299.99,17.9"/>
</g>
</svg>
