<?xml version="1.0" encoding="utf-8"?>
<!-- Generator: Adobe Illustrator 24.1.2, SVG Export Plug-In . SVG Version: 6.00 Build 0)  -->
<svg version="1.1" id="Calque_1" xmlns="http://www.w3.org/2000/svg" xmlns:xlink="http://www.w3.org/1999/xlink" x="0px" y="0px"
	 viewBox="0 0 75 22" style="enable-background:new 0 0 75 22;" xml:space="preserve">
<style type="text/css">
	.st0{fill:#006BB9;}
	.st1{fill:#FFFFFF;}
	.st2{fill:#F6EC36;}
	.st3{fill:#D01012;}
</style>
<g>
	<g>
		<path class="st0" d="M47.06,10.35c0.06-0.59,0.2-1.17,0.51-1.69c0.41-0.69,1.01-1.13,1.77-1.33c1-0.28,2.02-0.29,3.02,0.04
			c0.99,0.33,1.61,1.01,1.94,1.98c0.26,0.77,0.27,1.57,0.22,2.37c-0.02,0.43-0.08,0.86-0.21,1.28c-0.35,1.09-1.07,1.78-2.17,2.1
			c-0.93,0.27-1.86,0.27-2.78,0.01c-0.91-0.25-1.56-0.82-1.95-1.68c-0.23-0.52-0.37-1.06-0.36-1.64c0-0.2,0-0.4,0-0.61
			C47.06,11.17,47.04,10.62,47.06,10.35z M49.42,11.2c0,0.5,0.04,1.12,0.12,1.41c0.13,0.48,0.5,0.77,1.02,0.81
			c0.57,0.04,1.11-0.01,1.41-0.59c0.1-0.19,0.17-0.41,0.2-0.63c0.09-0.67,0.07-1.35,0-2.02c-0.04-0.42-0.18-0.82-0.57-1.05
			c-0.3-0.17-0.63-0.2-0.97-0.18c-0.59,0.04-0.98,0.32-1.11,0.9C49.42,10.29,49.42,11.13,49.42,11.2z"/>
		<path class="st0" d="M38.97,11.17c0-1.06,0-2.12,0-3.19c0-0.09,0-0.18,0-0.27c0.02-0.28,0.18-0.46,0.46-0.47
			c0.43-0.01,0.87-0.02,1.31,0c0.35,0.01,0.51,0.19,0.52,0.54c0.01,0.66,0,1.31,0,1.97c0,0.06,0,0.12,0,0.18
			c-0.01,0.13,0.06,0.18,0.18,0.18c0.2,0,0.4,0,0.61,0c0.48,0,0.95,0,1.43,0c0.29,0,0.29,0,0.29-0.3c0-0.62,0-1.23,0-1.85
			c0-0.1,0-0.2,0.01-0.3c0.04-0.23,0.19-0.4,0.42-0.41c0.48-0.01,0.95-0.01,1.43,0c0.22,0.01,0.38,0.17,0.43,0.4
			c0.02,0.08,0.01,0.16,0.01,0.24c0,2.16,0,4.33,0,6.49c0,0.1,0,0.2-0.01,0.3c-0.03,0.28-0.19,0.46-0.47,0.47
			c-0.44,0.02-0.89,0.02-1.34,0c-0.31-0.01-0.47-0.2-0.49-0.51c-0.01-0.22-0.01-0.44-0.01-0.67c0-0.57,0-1.13,0-1.7
			c0-0.25-0.01-0.26-0.25-0.26c-0.66,0-1.32,0-1.97,0c-0.28,0-0.28,0.01-0.28,0.29c0,0.7,0,1.4,0,2.09c0,0.09,0,0.18,0,0.27
			c-0.02,0.29-0.17,0.47-0.45,0.48c-0.45,0.02-0.91,0.02-1.37,0c-0.3-0.01-0.46-0.2-0.46-0.53c-0.01-0.62,0-1.23,0-1.85
			C38.97,12.24,38.97,11.7,38.97,11.17C38.97,11.17,38.97,11.17,38.97,11.17z"/>
		<path class="st0" d="M55.57,11.18c0-1.1,0.01-2.2-0.01-3.31c-0.01-0.49,0.24-0.67,0.66-0.67c0.97-0.01,1.94-0.02,2.91,0.01
			c0.39,0.01,0.79,0.07,1.17,0.16c0.84,0.21,1.38,0.74,1.6,1.58c0.18,0.68,0.19,1.38,0.04,2.07c-0.11,0.51-0.35,0.97-0.71,1.35
			c-0.25,0.26-0.57,0.42-0.9,0.55c-0.48,0.18-0.97,0.28-1.48,0.27c-0.25,0-0.51,0-0.76,0c-0.15,0-0.22,0.05-0.21,0.21
			c0.01,0.35,0,0.71,0,1.06c0,0.09,0,0.18-0.02,0.27c-0.06,0.28-0.2,0.41-0.48,0.42c-0.44,0.01-0.89,0.02-1.34,0
			c-0.3-0.01-0.47-0.2-0.47-0.52c-0.01-0.63,0-1.25,0-1.88C55.57,12.23,55.57,11.71,55.57,11.18z M58.48,11.44
			c0.07,0,0.21,0,0.34-0.02c0.34-0.04,0.71-0.24,0.82-0.7c0.09-0.38,0.11-0.76,0.01-1.14c-0.08-0.32-0.28-0.52-0.6-0.57
			c-0.32-0.05-0.64-0.05-0.96-0.07c-0.14-0.01-0.2,0.04-0.2,0.19c0,0.71,0,1.41,0,2.12c0,0.12,0.05,0.19,0.18,0.19
			C58.18,11.44,58.3,11.44,58.48,11.44z"/>
		<path class="st0" d="M34.39,15.26c-0.65,0.02-1.24-0.09-1.84-0.19c-0.1-0.02-0.19-0.05-0.29-0.09c-0.2-0.07-0.33-0.22-0.35-0.42
			c-0.03-0.27-0.03-0.55,0.01-0.81c0.05-0.35,0.27-0.48,0.64-0.42c0.51,0.07,1.02,0.16,1.53,0.2c0.31,0.02,0.63-0.02,0.93-0.1
			c0.35-0.09,0.51-0.46,0.41-0.8c-0.06-0.22-0.24-0.32-0.43-0.39c-0.35-0.13-0.71-0.23-1.07-0.35c-0.16-0.05-0.33-0.09-0.49-0.15
			c-0.98-0.35-1.5-1.11-1.55-2.17c-0.05-1.08,0.48-1.81,1.57-2.18c0.66-0.23,1.35-0.28,2.04-0.24c0.39,0.02,0.79,0.07,1.18,0.11
			c0.06,0.01,0.12,0.01,0.18,0.04c0.38,0.16,0.56,0.17,0.55,0.74c0,0.14,0.01,0.28-0.01,0.42c-0.04,0.39-0.29,0.57-0.68,0.52
			c-0.49-0.06-0.99-0.1-1.48-0.13c-0.17-0.01-0.34,0.02-0.51,0.05c-0.32,0.05-0.5,0.22-0.53,0.46c-0.03,0.21,0.15,0.5,0.39,0.6
			c0.27,0.11,0.56,0.17,0.84,0.26c0.38,0.12,0.79,0.21,1.15,0.38c0.69,0.33,1.05,0.91,1.14,1.67c0.04,0.32,0.06,0.64,0.01,0.96
			c-0.12,0.75-0.54,1.27-1.2,1.61c-0.55,0.28-1.15,0.38-1.76,0.41C34.62,15.26,34.48,15.26,34.39,15.26z"/>
	</g>
	<g>
		<path class="st1" d="M4.77,0.15v21.66h21.66V0.15H4.77z"/>
		<path class="st2" d="M4.77,0.15v21.66h21.66V0.15H4.77z M24.99,9.16c-0.04,0.67-0.25,1.52-0.44,2.08
			c-0.76,2.26-1.64,3.67-3.69,3.67c-0.6,0-1.67-0.16-2.06-1.23l-0.09-0.25l-0.17,0.21c-0.64,0.81-1.59,1.28-2.61,1.28
			c-0.78,0-1.41-0.26-1.81-0.76L14,14.02l-0.12,0.13c-0.43,0.48-1.19,0.75-2.07,0.75c-0.69,0-1.29-0.24-1.68-0.66l-0.11-0.12
			l-0.11,0.11c-0.44,0.44-1.13,0.66-1.99,0.64c-1.05-0.03-1.69-0.61-1.71-1.57c-0.03-1.48,1.4-4.59,1.99-5.53
			c0.38-0.63,0.91-0.94,1.62-0.94c0.48,0,0.81,0.1,1,0.31c0.18,0.19,0.21,0.35,0.23,0.73l0.02,0.49l0.26-0.42
			c0.63-1.01,1.67-1.15,2.7-1.15c0.72,0,1.34,0.26,1.59,0.67l0.09,0.15l0.13-0.11c0.53-0.45,1.28-0.7,2.11-0.7
			c0.91,0,1.56,0.23,1.96,0.67c0.09,0.1,0.15,0.17,0.23,0.34l0.1,0.21l0.15-0.18c0.57-0.68,1.36-1.02,2.33-1.02
			c0.77,0,1.36,0.21,1.74,0.61C24.94,7.93,25.01,8.65,24.99,9.16L24.99,9.16z"/>
		<path class="st3" d="M4.77,0.15v21.66h21.66V0.15H4.77z M25.6,9.99c-0.1,0.79-0.63,2.25-0.91,2.83c-0.76,1.56-1.77,2.77-3.73,2.77
			c-1.04,0-1.9-0.33-2.41-0.97c-0.74,0.64-1.65,0.98-2.63,0.98c-0.76,0-1.42-0.22-1.93-0.62c-0.56,0.4-1.32,0.62-2.16,0.62
			c-0.7,0-1.33-0.19-1.83-0.55c-0.55,0.36-1.26,0.54-2.1,0.52c-1.4-0.03-2.37-0.92-2.39-2.21c-0.04-1.71,1.4-4.84,2.08-5.93
			C8.1,6.59,8.88,6.14,9.83,6.14c1.03,0,1.41,0.29,1.59,0.67c0.8-0.68,1.85-0.72,2.6-0.72c0.83,0,1.35,0.22,1.79,0.57
			c0.61-0.37,1.31-0.56,2.15-0.56c1.07,0,1.86,0.25,2.42,0.8c0.65-0.54,1.45-0.78,2.36-0.78c1.2,0,1.98,0.43,2.45,1.07
			C25.83,8.11,25.72,9.02,25.6,9.99L25.6,9.99z"/>
		<path d="M4.62,0.01v21.95h21.95V0.01H4.62z M26.27,0.31v21.35H4.92V0.31H26.27L26.27,0.31z"/>
		<path d="M25.49,6.59V6.44h0.1c0.07,0,0.11,0.03,0.11,0.07c0,0.04-0.02,0.08-0.1,0.08H25.49z M25.85,6.9l-0.06-0.11
			c-0.05-0.1-0.07-0.11-0.12-0.13v0c0.09-0.01,0.15-0.07,0.15-0.15c0-0.09-0.05-0.15-0.17-0.15h-0.27V6.9h0.11V6.68h0.02
			c0.05,0,0.07,0.01,0.09,0.03c0.02,0.02,0.05,0.07,0.07,0.11l0.04,0.09L25.85,6.9L25.85,6.9z M25.59,6.21
			c0.23,0,0.42,0.19,0.42,0.42c0,0.23-0.19,0.42-0.42,0.42c-0.23,0-0.42-0.19-0.42-0.42C25.17,6.4,25.35,6.21,25.59,6.21z
			 M25.59,6.1c-0.29,0-0.53,0.23-0.53,0.53c0,0.29,0.23,0.53,0.53,0.53c0.29,0,0.53-0.23,0.53-0.52c0,0,0,0,0,0
			C26.11,6.34,25.88,6.1,25.59,6.1C25.59,6.1,25.59,6.1,25.59,6.1L25.59,6.1z M22.72,6.67c-1.13,0-1.92,0.45-2.45,1.08
			c-0.09-0.19-0.16-0.27-0.25-0.38c-0.43-0.49-1.13-0.72-2.07-0.72c-0.92,0-1.68,0.29-2.21,0.74c-0.28-0.45-0.93-0.74-1.72-0.74
			c-1.03,0-2.16,0.15-2.83,1.22c-0.02-0.39-0.05-0.59-0.27-0.82c-0.26-0.28-0.69-0.35-1.11-0.35c-0.76,0-1.33,0.33-1.74,1.01
			c-0.6,0.95-2.05,4.1-2.01,5.62c0.02,0.98,0.68,1.69,1.86,1.72c0.92,0.02,1.64-0.22,2.1-0.69c0.41,0.45,1.04,0.71,1.8,0.71
			c0.84,0,1.68-0.25,2.18-0.8c0.42,0.52,1.08,0.82,1.93,0.81c1.11-0.01,2.09-0.53,2.72-1.34c0.35,0.95,1.24,1.33,2.21,1.33
			c2.12,0,3.06-1.46,3.83-3.77c0.18-0.52,0.41-1.39,0.45-2.12C25.2,7.95,24.69,6.67,22.72,6.67L22.72,6.67z M8.6,12.47
			c1.1-0.19,1.37,0.21,1.34,0.57c-0.1,1.1-1.11,1.35-1.99,1.33c-0.64-0.02-1.21-0.31-1.22-1.05c-0.03-1.29,1.29-4.28,1.91-5.27
			c0.29-0.47,0.64-0.7,1.19-0.7c0.53,0,0.66,0.27,0.65,0.6C10.45,8.81,9.06,11.44,8.6,12.47L8.6,12.47z M12.17,11.46
			c-0.07,0.2-0.21,0.61-0.32,1.05c0.36-0.09,0.63-0.15,1.09-0.14c0.53,0.01,0.87,0.23,0.87,0.67c0,1.06-1.17,1.37-1.98,1.37
			c-0.89,0-1.67-0.51-1.67-1.48c0-1.14,0.62-2.87,1.2-4.03c0.71-1.42,1.44-1.6,2.7-1.6c0.55,0,1.19,0.24,1.19,0.76
			c0,0.72-0.61,1-1.22,1.03c-0.26,0.01-0.66,0.03-0.9,0.01c0,0-0.2,0.31-0.42,0.86c1.12-0.16,1.6,0.1,1.41,0.75
			C13.87,11.56,13.1,11.62,12.17,11.46L12.17,11.46z M17.7,8.72c-0.3,0-0.5,0.19-0.65,0.4c-0.33,0.46-1.03,2.29-1.14,3.04
			c-0.08,0.52,0.15,0.62,0.39,0.62c0.39,0,0.83-0.41,0.98-1.09c0,0-0.74-0.02-0.54-0.68c0.2-0.64,0.58-0.78,1.2-0.8
			c1.23-0.05,1.11,0.86,1.01,1.35c-0.32,1.58-1.44,2.84-3.03,2.84c-1.09,0-1.76-0.6-1.76-1.71c0-0.79,0.39-2.03,0.7-2.75
			c0.66-1.54,1.35-2.62,3.12-2.62c1.06,0,1.89,0.38,1.77,1.37c-0.09,0.73-0.45,1.16-1.12,1.21c-0.19,0.01-0.94,0-0.69-0.72
			C18.03,8.92,18.07,8.72,17.7,8.72L17.7,8.72z M24.37,10.03c-0.19,0.93-0.61,2.03-1.06,2.85c-0.74,1.34-1.65,1.52-2.44,1.51
			c-0.79-0.01-1.68-0.3-1.68-1.52c0-0.87,0.37-2.11,0.69-2.91C20.43,8.5,21,7.3,22.8,7.32C24.9,7.35,24.53,9.21,24.37,10.03
			L24.37,10.03z M22.59,8.76c-0.18,0-0.34,0.03-0.48,0.25c-0.32,0.41-1.25,2.95-1.23,3.46c0.01,0.18,0.11,0.34,0.33,0.34
			c0.26,0,0.4-0.18,0.53-0.39c0.29-0.49,1.11-2.74,1.14-3.3C22.88,8.95,22.85,8.76,22.59,8.76L22.59,8.76z"/>
	</g>
</g>
</svg>
