<?xml version="1.0" encoding="utf-8"?>
<!-- Generator: Adobe Illustrator 24.0.1, SVG Export Plug-In . SVG Version: 6.00 Build 0)  -->
<svg version="1.1" id="Calque_1" xmlns="http://www.w3.org/2000/svg" xmlns:xlink="http://www.w3.org/1999/xlink" x="0px" y="0px"
	 viewBox="0 0 75 22" style="enable-background:new 0 0 75 22;" xml:space="preserve">
<style type="text/css">
	.st0{fill:#FFFFFF;}
	.st1{fill:#3A3A3A;}
	.st2{fill-rule:evenodd;clip-rule:evenodd;fill:#FF9900;}
	.st3{fill-rule:evenodd;clip-rule:evenodd;}
	.st4{fill:#464655;}
	.st5{fill:#FFE15A;}
	.st6{fill:#FF4B55;}
</style>
<g>
	<g>
		<path class="st0" d="M51.49,16.5c-0.25,0-0.46-0.2-0.46-0.46V4.13c0-0.25,0.2-0.46,0.46-0.46h18.54c0.25,0,0.46,0.2,0.46,0.46
			v11.92c0,0.25-0.2,0.46-0.46,0.46H51.49z"/>
		<path class="st1" d="M70.04,3.8c0.18,0,0.33,0.15,0.33,0.33v11.92c0,0.18-0.15,0.33-0.33,0.33H51.49c-0.18,0-0.33-0.15-0.33-0.33
			V4.13c0-0.18,0.15-0.33,0.33-0.33H70.04 M70.04,3.55H51.49c-0.32,0-0.58,0.26-0.58,0.58v11.92c0,0.32,0.26,0.58,0.58,0.58h18.54
			c0.32,0,0.58-0.26,0.58-0.58V4.13C70.62,3.81,70.36,3.55,70.04,3.55L70.04,3.55z"/>
	</g>
	<g>
		<path id="path8_8_" class="st2" d="M32.06,15.3c-2.57,1.89-6.29,2.9-9.5,2.9c-4.49,0-8.54-1.66-11.6-4.43
			c-0.24-0.22-0.03-0.51,0.26-0.34c3.3,1.92,7.39,3.08,11.61,3.08c2.85,0,5.98-0.59,8.86-1.81C32.12,14.51,32.48,14.98,32.06,15.3"
			/>
		<path id="path10_8_" class="st2" d="M33.12,14.08c-0.33-0.42-2.17-0.2-3-0.1c-0.25,0.03-0.29-0.19-0.06-0.35
			c1.47-1.03,3.88-0.74,4.16-0.39c0.28,0.35-0.07,2.76-1.45,3.92c-0.21,0.18-0.41,0.08-0.32-0.15
			C32.76,16.23,33.45,14.5,33.12,14.08"/>
		<path id="path12_8_" class="st3" d="M30.18,6.34v-1c0-0.15,0.12-0.25,0.25-0.25h4.5c0.14,0,0.26,0.1,0.26,0.25v0.86
			c0,0.14-0.12,0.33-0.34,0.63l-2.33,3.33c0.87-0.02,1.78,0.11,2.56,0.55c0.18,0.1,0.23,0.25,0.24,0.39v1.07
			c0,0.15-0.16,0.32-0.33,0.23c-1.38-0.73-3.22-0.8-4.75,0.01c-0.16,0.08-0.32-0.08-0.32-0.23v-1.02c0-0.16,0-0.44,0.17-0.69
			l2.7-3.87h-2.35C30.3,6.59,30.18,6.49,30.18,6.34"/>
		<path id="path14_8_" class="st3" d="M13.78,12.6h-1.37c-0.13-0.01-0.23-0.11-0.24-0.23V5.35c0-0.14,0.12-0.25,0.26-0.25h1.28
			c0.13,0.01,0.24,0.11,0.25,0.23v0.92h0.03c0.33-0.89,0.96-1.3,1.8-1.3c0.86,0,1.39,0.41,1.78,1.3c0.33-0.89,1.08-1.3,1.89-1.3
			c0.57,0,1.2,0.24,1.58,0.77c0.43,0.59,0.34,1.45,0.34,2.2l0,4.43c0,0.14-0.12,0.25-0.26,0.25h-1.37
			c-0.14-0.01-0.25-0.12-0.25-0.25V8.63c0-0.3,0.03-1.04-0.04-1.32c-0.1-0.47-0.41-0.6-0.8-0.6c-0.33,0-0.68,0.22-0.82,0.58
			c-0.14,0.35-0.13,0.95-0.13,1.34v3.72c0,0.14-0.12,0.25-0.26,0.25h-1.37c-0.14-0.01-0.25-0.12-0.25-0.25l0-3.72
			c0-0.78,0.13-1.94-0.84-1.94c-0.98,0-0.94,1.12-0.94,1.94v3.72C14.04,12.49,13.93,12.6,13.78,12.6"/>
		<path id="path16_8_" class="st3" d="M39.07,4.95c2.03,0,3.13,1.74,3.13,3.96c0,2.14-1.21,3.84-3.13,3.84
			c-1.99,0-3.08-1.74-3.08-3.92C35.99,6.65,37.09,4.95,39.07,4.95 M39.08,6.38c-1.01,0-1.07,1.37-1.07,2.23
			c0,0.86-0.01,2.69,1.06,2.69c1.06,0,1.11-1.48,1.11-2.38c0-0.59-0.03-1.3-0.2-1.86C39.82,6.57,39.51,6.38,39.08,6.38"/>
		<path id="path18_8_" class="st3" d="M44.83,12.6h-1.36c-0.14-0.01-0.25-0.12-0.25-0.25l0-7.02c0.01-0.13,0.13-0.23,0.26-0.23h1.27
			c0.12,0.01,0.22,0.09,0.24,0.2v1.07h0.03c0.38-0.96,0.92-1.42,1.86-1.42c0.61,0,1.21,0.22,1.6,0.83c0.36,0.56,0.36,1.51,0.36,2.19
			v4.42c-0.02,0.12-0.13,0.22-0.26,0.22H47.2c-0.13-0.01-0.23-0.1-0.24-0.22V8.57c0-0.77,0.09-1.89-0.86-1.89
			c-0.33,0-0.64,0.22-0.79,0.56c-0.19,0.43-0.22,0.86-0.22,1.33v3.78C45.09,12.49,44.97,12.6,44.83,12.6"/>
		<path id="path28_8_" class="st3" d="M26.6,9.25c0,0.53,0.01,0.98-0.26,1.45c-0.22,0.38-0.56,0.62-0.95,0.62
			c-0.53,0-0.83-0.4-0.83-0.99c0-1.17,1.04-1.38,2.04-1.38L26.6,9.25 M27.98,12.58c-0.09,0.08-0.22,0.09-0.32,0.03
			c-0.45-0.38-0.54-0.55-0.79-0.91c-0.75,0.77-1.28,0.99-2.26,0.99c-1.15,0-2.05-0.71-2.05-2.13c0-1.11,0.6-1.87,1.46-2.24
			C24.77,8,25.81,7.95,26.6,7.86V7.68c0-0.33,0.03-0.71-0.17-0.99c-0.17-0.25-0.48-0.36-0.77-0.36c-0.52,0-0.99,0.27-1.1,0.82
			c-0.02,0.12-0.11,0.24-0.24,0.25L23,7.26c-0.11-0.03-0.24-0.12-0.2-0.29c0.3-1.61,1.76-2.09,3.06-2.09c0.67,0,1.54,0.18,2.06,0.68
			c0.67,0.62,0.6,1.45,0.6,2.35v2.13c0,0.64,0.27,0.92,0.52,1.27c0.09,0.12,0.11,0.27-0.01,0.36
			C28.75,11.91,28.25,12.34,27.98,12.58L27.98,12.58"/>
		<path id="path30_8_" class="st3" d="M8.66,9.25c0,0.53,0.01,0.98-0.26,1.45c-0.22,0.38-0.56,0.62-0.95,0.62
			c-0.53,0-0.83-0.4-0.83-0.99c0-1.17,1.04-1.38,2.03-1.38V9.25 M10.04,12.58c-0.09,0.08-0.22,0.09-0.32,0.03
			c-0.45-0.38-0.53-0.55-0.79-0.91c-0.75,0.77-1.28,0.99-2.26,0.99c-1.15,0-2.05-0.71-2.05-2.13c0-1.11,0.6-1.87,1.46-2.24
			C6.84,8,7.87,7.95,8.66,7.86V7.68c0-0.33,0.03-0.71-0.17-0.99C8.33,6.44,8.01,6.33,7.73,6.33c-0.52,0-0.99,0.27-1.1,0.82
			C6.61,7.28,6.52,7.4,6.39,7.4L5.07,7.26c-0.11-0.03-0.23-0.12-0.2-0.29c0.31-1.61,1.76-2.09,3.06-2.09c0.67,0,1.54,0.18,2.06,0.68
			c0.67,0.62,0.6,1.45,0.6,2.35v2.13c0,0.64,0.27,0.92,0.52,1.27c0.09,0.12,0.11,0.27,0,0.36C10.82,11.91,10.32,12.34,10.04,12.58
			L10.04,12.58"/>
	</g>
	<g>
		<path class="st4" d="M70.37,7.99h-19.2V4.13c0-0.18,0.15-0.33,0.33-0.33h18.54c0.18,0,0.33,0.15,0.33,0.33L70.37,7.99L70.37,7.99z
			"/>
		<path class="st5" d="M70.04,16.38H51.49c-0.18,0-0.33-0.15-0.33-0.33v-3.86h19.2v3.86C70.37,16.23,70.22,16.38,70.04,16.38z"/>
		<rect x="51.16" y="7.99" class="st6" width="19.2" height="4.19"/>
	</g>
</g>
</svg>
