<?xml version="1.0" encoding="utf-8"?>
<!-- Generator: Adobe Illustrator 24.1.2, SVG Export Plug-In . SVG Version: 6.00 Build 0)  -->
<svg version="1.1" id="Calque_1" xmlns="http://www.w3.org/2000/svg" xmlns:xlink="http://www.w3.org/1999/xlink" x="0px" y="0px"
	 viewBox="0 0 300 145" style="enable-background:new 0 0 300 145;" xml:space="preserve">
<g>
	<path d="M219.8,142.3c-3.6,3.6-9.4,3.6-12.9,0l-28-28c-10.6,7.9-23.7,12.7-37.9,12.7c-35.1,0-63.5-28.4-63.5-63.5S105.9,0,141,0
		s63.5,28.4,63.5,63.5c0,14.2-4.7,27.3-12.7,37.9l28,28C223.4,133,223.4,138.8,219.8,142.3z M141,18.1c-25,0-45.3,20.3-45.3,45.3
		s20.3,45.3,45.3,45.3s45.3-20.3,45.3-45.3S166,18.1,141,18.1z"/>
</g>
</svg>
