<?xml version="1.0" encoding="utf-8"?>
<!-- Generator: Adobe Illustrator 24.1.2, SVG Export Plug-In . SVG Version: 6.00 Build 0)  -->
<svg version="1.1" id="Calque_1" xmlns="http://www.w3.org/2000/svg" xmlns:xlink="http://www.w3.org/1999/xlink" x="0px" y="0px"
	 viewBox="0 0 300 145" style="enable-background:new 0 0 300 145;" xml:space="preserve">
<style type="text/css">
	.st0{fill:#FFFFFF;}
</style>
<g>
	<path d="M222.07,78.73c12.59,0,25.02,0,37.52,0c0,13.83,0,27.57,0,41.46c-0.62,0-1.19,0-1.76,0c-17.2,0-34.39,0.01-51.59-0.02
		c-1.15,0-1.94,0.29-2.73,1.16c-4.31,4.72-9.1,8.91-14.5,12.35c-6.33,4.03-13.08,7.07-20.33,9.02c-3.55,0.95-7.14,1.61-10.77,2.09
		c-4.13,0.54-8.31,0.59-12.46,0.31c-6.76-0.45-13.38-1.72-19.78-4.02c-6.96-2.51-13.42-5.93-19.35-10.38
		c-3.72-2.8-7.09-5.97-10.24-9.38c-0.74-0.8-1.49-1.13-2.58-1.13c-17.2,0.03-34.39,0.02-51.59,0.02c-0.58,0-1.16,0-1.72,0
		c-0.32-1.37-0.45-34.39-0.18-41.3c0.03-0.03,0.07-0.07,0.11-0.1c0.04-0.03,0.08-0.08,0.13-0.08c12.39,0,24.78,0,37.34,0
		c0-0.6,0.05-1.11-0.01-1.61c-0.36-2.99-0.34-5.97,0.01-8.96c0.15-1.25,0.23-2.51,0.33-3.76c0.29-3.72,1.1-7.35,2.07-10.93
		c1.99-7.35,5.16-14.18,9.34-20.54c1.94-2.94,4.11-5.7,6.44-8.36c5.21-5.97,11.36-10.78,18.16-14.76c3.53-2.07,7.28-3.74,11.13-5.16
		c4.24-1.56,8.6-2.65,13.03-3.42c2.27-0.39,4.58-0.51,6.88-0.73c1.25-0.12,2.51-0.27,3.77-0.24c3.78,0.08,7.54,0.27,11.29,0.79
		c4.11,0.57,8.14,1.47,12.07,2.74c3.64,1.17,7.18,2.65,10.59,4.4c5.54,2.85,10.62,6.35,15.3,10.49
		c8.02,7.09,14.05,15.59,18.34,25.35c2.22,5.05,3.78,10.31,4.74,15.74c0.48,2.74,0.78,5.49,1.01,8.26c0.2,2.37,0.19,4.73,0.18,7.09
		c0,0.94-0.16,1.88-0.23,2.82C222.01,78.13,222.05,78.33,222.07,78.73z M215.84,78.65c1.17-5.82,0.16-17.4-2.62-26.02
		C209.46,40.94,203,31,193.82,22.89c-9.8-8.65-21.22-14.01-34.18-15.9c-16.92-2.47-32.61,1.03-46.79,10.5
		c-13.46,8.99-22.39,21.43-27.07,37.2c0.51-0.12,0.8-0.17,1.08-0.25c1.1-0.33,2.2-0.69,3.31-0.98c0.33-0.08,0.87-0.11,1.04,0.08
		c0.61,0.7,1.3,1.43,1.59,2.28c0.47,1.35,0.35,1.4,1.65,0.87c0.29-0.12,0.6-0.19,0.88-0.34c0.51-0.27,0.79-0.69,0.67-1.3
		c-0.08-0.41-0.22-0.81-0.28-1.22c-0.16-1.09,0.26-1.88,1.32-2.21c0.84-0.26,1.73-0.43,2.61-0.5c0.86-0.07,1.21,0.31,1.37,1.17
		c0.06,0.35,0.1,0.7,0.15,1.01c0.6,0.2,0.91-0.09,1.14-0.46c0.35-0.56,0.35-1.14,0.18-1.81c-0.2-0.76,0.36-1.73,0.95-1.99
		c0.71-0.32,1.76-0.02,2.26,0.66c0.18,0.25,0.28,0.57,0.46,0.83c0.21,0.3,0.44,0.6,0.72,0.82c0.36,0.29,0.89,0.13,1.03-0.32
		c0.1-0.34,0.11-0.72,0.12-1.08c0.01-0.69-0.03-1.37,0.01-2.06c0.02-0.44,0.39-0.66,0.78-0.5c0.29,0.12,0.55,0.3,0.81,0.48
		c1.11,0.77,2.22,1.54,3.36,2.34c1.27-1.34,0.55-3.27,1.34-4.94c1.4,1.17,2.49,2.41,3.51,3.71c0.73-0.35,1.02-0.93,1.22-1.52
		c0.21-0.64,0.25-1.34,0.4-2c0.07-0.32,0.24-0.62,0.39-0.98c0.24,0.2,0.4,0.27,0.48,0.4c0.44,0.65,0.87,1.31,1.29,1.98
		c0.25,0.39,0.42,1,1,0.76c0.55-0.22,0.26-0.83,0.25-1.27c-0.01-0.36-0.17-0.71-0.21-1.08c-0.02-0.24,0.07-0.48,0.12-0.84
		c0.29,0.14,0.51,0.19,0.63,0.32c0.39,0.43,0.73,0.9,1.13,1.32c0.15,0.16,0.43,0.21,0.65,0.31c0.09-0.27,0.26-0.54,0.25-0.8
		c-0.01-0.24-0.21-0.46-0.34-0.69c-0.22-0.42-0.42-0.85-0.67-1.25c-0.19-0.31-0.22-0.58,0.07-0.84c0.33-0.3,0.59-0.1,0.81,0.13
		c0.39,0.43,0.75,0.88,1.12,1.31c1.58-1.47,1.8-2.32,1.16-4c-0.06-0.15-0.15-0.28-0.21-0.43c-0.32-0.8-0.32-0.8,0.52-1.6
		c0.71,0.47,1.45,0.96,2.2,1.46c0.59-0.56,0.61-1.19,0.23-1.85c-0.31-0.55-0.67-1.07-0.96-1.63c-0.2-0.38-0.26-0.79,0.25-1.21
		c0.95,0.53,1.94,1.08,3.02,1.69c0.28-1.6-1.51-2.6-1.03-4.13c0.82,0.04,1.2,0.99,2.13,0.76c-0.37-1.1-0.71-2.11-1.55-2.89
		c-0.34-0.32-0.63-0.71-0.86-1.11c-0.24-0.42-0.01-0.94,0.45-0.94c0.61,0.01,1.24,0.12,1.82,0.31c0.64,0.22,1.22,0.63,1.86,0.86
		c0.23,0.08,0.65-0.04,0.82-0.22c0.16-0.18,0.21-0.58,0.15-0.84c-0.18-0.7-0.53-1.37-0.67-2.08c-0.15-0.72-0.54-1.24-1.06-1.71
		c-0.38-0.34-0.91-0.58-0.93-1.18c0.3-0.71,0.86-0.88,1.56-0.86c0.72,0.02,1.31,0.3,1.87,0.73c1.04,0.8,2.27,1.04,3.53,1.16
		c0.64,0.06,1.14-0.13,1.43-0.84c-0.24-0.23-0.52-0.46-0.76-0.72c-0.17-0.18-0.41-0.39-0.42-0.59c-0.04-0.95-0.7-1.34-1.41-1.72
		c-0.49-0.26-0.93-0.6-1.39-0.9c0.96-1.81,2.62-1.99,3.89-0.98c0.86,0.68,1.84,1.21,2.78,1.78c0.36,0.22,0.77,0.37,1.1,0.03
		c-0.18-0.79-0.3-1.56-0.55-2.29c-0.16-0.48-0.48-0.92-0.78-1.33c-0.28-0.38-0.7-0.66-0.94-1.06c-0.12-0.21-0.1-0.65,0.05-0.84
		c0.15-0.19,0.67-0.36,0.79-0.26c0.84,0.71,2.04,0.65,2.86,1.25c1.2,0.88,2.33,0.63,3.54,0.23c0.29-0.1,0.56-0.28,0.84-0.41
		c1.05-0.47,2.1-0.99,3.31-0.85c0.67,0.07,1.24-0.17,1.77-0.54c0.97-0.68,2.02-1.05,3.24-1c1.03,0.05,1.95-0.27,2.66-1.1
		c0.37-0.44,0.82-0.76,1.46-0.84c0.92-0.12,1.51,0.34,2.03,0.96c0.81,0.96,1.68,1.67,3.08,1.63c0.56-0.02,1.32,0.13,1.66,0.74
		c0.45,0.8,0.73,1.68,0.62,2.67c0.23,0.02,0.43,0.06,0.64,0.06c1.33-0.01,2.3,0.52,2.94,1.73c0.28,0.53,0.78,0.96,1.22,1.39
		c0.41,0.4,0.88,0.74,1.34,1.09c0.45,0.35,0.88,0.77,1.39,1.01c0.83,0.4,1.5,0.95,2.13,1.6c0.59,0.6,1.19,1.21,1.88,1.67
		c1.17,0.79,2.43,1.45,3.64,2.2c1.61,0.99,3.24,1.95,4.77,3.06c0.77,0.56,1.56,1.04,2.42,1.45c1.66,0.78,3.29,1.62,4.91,2.48
		c0.88,0.47,1.65,1.07,2.22,1.95c0.71,1.09,1.55,2.11,2.35,3.14c0.94,1.21,1.83,2.44,2.2,3.96c0.08,0.34,0.14,0.72,0.09,1.05
		c-0.38,2.22-1.81,3.88-3.13,5.56c-0.75,0.96-1.63,0.66-2.13-0.45c-0.48-1.07-0.89-2.28-2.51-1.93c-0.13,0.03-0.31-0.26-0.49-0.34
		c-0.13-0.06-0.34-0.09-0.45-0.02c-0.87,0.49-0.87,0.5-1.52-0.15c-0.09-0.09-0.16-0.22-0.22-0.32c-0.37,0.17-0.69,0.31-1.05,0.48
		c-0.27-0.43-0.49-0.77-0.74-1.16c-1.38,0.77-2.81,0.71-4.26,0.32c-0.91-0.24-1.84-0.43-2.73-0.72c-2.64-0.84-5.35-1.53-7.72-3.06
		c-0.34-0.22-0.77-0.34-1.16-0.47c-1.32-0.42-2.52-0.99-3.47-2.06c-0.33-0.37-1.09-0.72-1.52-0.6c-1.57,0.44-3.01,0.22-4.44-0.43
		c-0.94-0.43-1.82-0.31-2.69,0.24c-0.96,0.6-1.95,1.23-3.48,0.59c0.6,0.8,1.15,0.92,1.68,1.11c1.76,0.63,3.06,1.86,3.96,3.45
		c0.5,0.89,0.7,1.96,1.06,2.94c0.14,0.39,0.15,0.71-0.2,0.99c-0.4,0.31-0.69,0.01-0.99-0.17c-0.12-0.08-0.2-0.23-0.29-0.36
		c-0.48-0.7-1.1-0.66-1.76-0.43c-0.23,0.76,0.03,1.35,0.42,1.84c0.45,0.57,0.58,1.21,0.71,1.89c0.41,2.05,1.25,3.89,2.74,5.39
		c1.9,1.91,3.79,3.82,5.74,5.67c0.72,0.68,1.54,1.29,2.4,1.77c1.65,0.91,3.26,1.9,5.13,2.34c0.85,0.2,1.52,0.72,2.05,1.4
		c0.58,0.73,0.42,1.44-0.44,1.74c-0.58,0.2-1.22,0.28-1.84,0.37c-0.72,0.1-1.45,0.16-2.18,0.23c-2.8,0.28-5.48-0.02-7.71-1.95
		c-1.67-1.45-3.32-2.92-4.87-4.51c-1.46-1.5-3.08-2.68-4.97-3.56c-1.62-0.75-3.21-1.55-4.78-2.39c-1.3-0.69-2.53-1.49-3.81-2.21
		c-2.33-1.31-4.1-3.07-4.86-5.73c-0.26-0.92-0.51-1.86-1.21-2.78c-0.6,1.54-0.45,3.2-1.64,4.68c0-1.68,0-3.09,0-4.55
		c-0.58,0.27,0.02,1.12-0.84,1.17c-0.06-0.73-0.11-1.43-0.17-2.13c-0.68,2.67-0.79,5.41-1.72,8.24c-0.36-1.85,0.23-3.54-0.43-5.48
		c-1.04,1.51-1.4,2.98-1.97,4.35c-0.59,1.41-0.96,2.93-2.03,4.26c0.06-1.69,0.82-3.12,0.78-5.04c-0.58,1.21-1.06,2.09-1.43,3.01
		c-0.23,0.58-0.18,1.28-0.46,1.81c-0.26,0.5-0.89,0.8-1.21,1.28c-0.69,1.05-1.29,2.16-1.91,3.25c-0.24,0.43-0.46,0.87-0.68,1.31
		c-0.1-0.04-0.2-0.08-0.29-0.13c0.39-1.12,0.7-2.27,1.18-3.35c0.46-1.05,1.1-2.03,1.64-3.05c0.24-0.46,0.55-0.94,0.31-1.49
		c-0.44-0.98-0.9-1.95-1.39-2.98c-0.7,0.61-0.7,1.35-0.76,2.08c-0.14,1.88-0.21,3.77-1.52,5.33c-0.33,0.39-0.49,0.93-0.7,1.41
		c-0.26,0.59-0.5,1.19-0.74,1.78c0.25-3.12,1.02-6.21-0.38-9.43c-0.21,0.41-0.43,0.66-0.47,0.93c-0.06,0.47,0.01,0.95,0.01,1.42
		c0.01,1.29-0.08,1.42-1.28,1.78c-0.34,0.1-0.75,0.14-1.01,0.36c-0.88,0.75-1.11,2.97-0.46,3.95c0.36,0.54,0.75,1.07,1.13,1.62
		c-0.18,0.08-0.23,0.13-0.27,0.12c-0.25-0.06-0.5-0.14-0.75-0.21c-0.79-0.22-1.05-0.06-1.1,0.79c-0.05,0.89-0.11,1.8-0.03,2.69
		c0.05,0.55,0.22,1.2,0.57,1.58c0.66,0.7,1.5,1.23,2.38,1.92c0.21-0.57,0.32-1.03,0.55-1.43c0.28-0.49,0.61-0.98,1.02-1.37
		c0.31-0.29,0.82-0.34,1.09,0.13c0.85,1.48,2.17,1.53,3.56,1.13c1.7-0.48,3.25-1.37,4.89-2.03c0.24-0.1,0.48-0.26,0.63-0.46
		c0.21-0.27,0.52-0.66,0.45-0.91c-0.31-1.29,0.7-2.68-0.31-3.9c-0.08-0.1-0.02-0.31-0.04-0.47c-0.12-1.65,1.07-2.45,2.22-3.1
		c2.13-1.2,4.11-0.42,6,0.78c-0.94,0.12-1.9-0.03-2.79,0.17c-0.88,0.19-1.69,0.74-2.47,1.1c0,0.61,0,1.12,0,1.72
		c1.11-0.23,1.65-1.46,2.84-1.3c0.98,0.13,2.01,0.07,2.95,0.32c0.96,0.25,1.95,0.66,2.45,1.82c-1.15-0.29-2.14-0.57-3.15-0.77
		c-0.39-0.08-0.92-0.12-1.22,0.07c-0.78,0.51-1.67,1.04-2.14,1.8c-0.48,0.77-1,1.4-1.78,1.74c0.3,1.82,0.68,1.5-0.55,3.91
		c-0.4,0.78-0.82,0.99-1.56,0.95c-0.8-0.04-1.59-0.05-2.29,0.41c-0.54,0.36-1.08,0.59-1.75,0.27c-0.25-0.12-0.66-0.08-0.92,0.05
		c-0.62,0.32-1.25,0.47-1.95,0.54c-0.35,0.03-0.87,0.37-0.96,0.68c-0.22,0.76-0.58,1.58-0.05,2.38c0.88-0.24,1.71-0.62,2.58-0.03
		c0.17,0.11,0.5,0.03,0.74-0.03c0.51-0.12,1-0.4,1.51-0.41c1-0.02,1.58-0.53,1.88-1.39c0.22-0.64,0.66-0.9,1.28-1
		c0.41-0.06,0.84-0.1,1.22-0.25c0.52-0.21,1.06-0.45,1.49-0.79c0.7-0.55,1.32-1.19,2-1.81c-0.23-1.4-0.05-1.7,1.31-2.03
		c0.3-0.07,0.63-0.08,0.94-0.09c1.79-0.05,3.38,0.67,4.97,1.34c0.49,0.2,0.89,0.61,1.09,1.18c-1.33-0.75-2.75-0.7-4.15-0.64
		c-0.34,0.02-0.81,0.16-0.96,0.4c-0.37,0.59-0.6,1.28-0.89,1.95c0.76,0.43,1.23,0.07,1.76-0.32c1.28-0.97,2.08-0.91,3.41,0
		c0.81,0.56,1.38,1.3,1.86,2.11c0.61,1.03,0.85,2.17,0.47,3.61c-0.53-0.99-0.94-1.77-1.36-2.54c-0.36-0.66-0.78-1.28-1.6-1.39
		c-1.46-0.2-2.89,0.03-3.99,1.01c-1.18,1.07-2.28,1.14-3.55,0.31c-0.07-0.04-0.2,0.01-0.3,0.02c-0.27,0.31-0.48,0.72-0.81,0.9
		c-0.73,0.39-1.53,0.67-2.3,0.98c-1.07,0.41-2.15,0.78-3.21,1.22c-0.22,0.09-0.35,0.42-0.73,0.91
		C165.25,78.65,190.5,78.65,215.84,78.65z M144.23,127.37c1.03-0.55,0.05-1.54,0.88-2.02c-0.87-0.65-1.35-1.33-0.83-2.36
		c1.35,0.3,0.97,2.09,2.21,2.5c0.12-0.4,0.13-0.82,0.34-1.08c0.49-0.59,1.07-1.1,1.61-1.64c0.1,0.46,0.34,0.8,0.98,0.68
		c0,0.39,0,0.75,0,1.26c0.86-0.54,1.26-1.46,2.35-1.57c-0.41,1.03-0.79,1.98-1.19,2.95c0.39,0.05,0.74,0.1,1.15,0.15
		c-0.1,0.38-0.19,0.7-0.28,1.03c0.9,0.41,1.2-0.46,1.73-0.74c0.14,0.21,0.25,0.38,0.34,0.51c1.16-0.51,2.27-1.01,3.55-1.57
		c-0.26,0.6-0.44,1.01-0.63,1.46c0.46-0.05,0.8-0.09,1.22-0.14c-0.09,0.24-0.16,0.37-0.17,0.51c-0.01,0.14,0.03,0.28,0.05,0.48
		c0.19-0.1,0.38-0.14,0.44-0.25c0.63-0.99,1.7-1.7,1.77-3.06c0.02-0.44,0.53-0.87,0.86-1.27c0.1-0.12,0.45-0.19,0.53-0.12
		c0.51,0.46,0.97,0.18,1.46-0.01c0.33-0.13,0.72-0.29,0.86,0.3c0.02,0.09,0.29,0.22,0.35,0.18c0.64-0.39,1.19,0.06,1.86,0.13
		c-0.21,0.32-0.37,0.56-0.55,0.82c0.61,0.79,1.98-0.03,2.41,1.24c-0.4,0.08-0.78,0.16-1.26,0.26c0.6,0.66,1.61,0.46,1.84,1.5
		c-0.47,0.23-0.99,0.45-1.47,0.73c-0.25,0.14-0.59,0.37-0.61,0.59c-0.02,0.23,0.23,0.58,0.46,0.73c0.55,0.37,1.15,0.65,1.77,0.99
		c0.41-0.29,0.84-0.58,1.26-0.89c0.05-0.03,0.02-0.16,0.04-0.32c-0.42,0-0.82,0-1.41,0c0.39-0.48,0.95-0.9,0.89-1.15
		c-0.19-0.71-0.67-1.29-0.56-2.09c0.11-0.8,0.14-1.55,1.27-1.38c0.09,0.01,0.23-0.32,0.33-0.5c0.15-0.27,0.24-0.61,0.46-0.82
		c0.2-0.19,0.61-0.42,0.8-0.34c0.99,0.43,2.1,0.71,2.76,1.69c-0.56,0.35-1.42-0.13-1.81,0.81c1.12,0.04,2.29-0.26,3.11,0.76
		c-1.04,0.5-1.04,0.5-2.18,0.6c0.82,0.22,1.64,0.44,2.44,0.66c0.53,0.96-0.29,1.28-0.78,1.62c0.04,0.51,0.84,0.59,0.4,1.14
		c0.13,0.09,0.28,0.28,0.39,0.26c0.45-0.08,0.7-0.34,0.8-0.83c0.1-0.49,0.37-0.95,0.54-1.36c0.52,0.22,0.9,0.38,1.28,0.54
		c0.15,0.42-0.18,1.03,0.54,1.39c0.13-1.22,0.51-2.21,1.59-2.82c0.09,0.28,0.16,0.52,0.26,0.83c0.95-0.86,1.94-0.41,2.92-0.14
		c-0.58,1.16-0.58,1.16,0.09,1.73c3.21-1.63,11.18-7.67,12.35-9.67c-30.82,0-61.59,0-92.41,0c1.24,2.12,8.93,7.94,13.79,10.47
		c0.13-0.55,0.12-1.21,0.44-1.63c0.58-0.76,0.69-1.59,0.69-2.22c0.74-0.55,1.29-0.96,1.92-1.42c0.14,0.37,0.26,0.66,0.4,1.03
		c0.91-0.75,1.73-1.44,2.71-2.25c0,1.17-1.02,1.88-0.76,2.97c0.68-0.21,1.3-0.4,1.93-0.59c0.39,1.28,0.39,1.28,1.94,0.57
		c0.4,0.23,0.86,0.4,1.19,0.71c0.33,0.32,0.53,0.77,0.85,1.25c0.28-1.05,0.27-1.04-0.2-2.07c-0.07-0.15,0.05-0.37,0.04-0.55
		c-0.01-0.22-0.05-0.43-0.12-1.01c-0.44,0.7-0.69,1.1-0.95,1.5c-0.52-0.37-0.53-0.84-0.35-1.3c0.21-0.56,0.65-1.01,0.25-1.72
		c-0.16-0.29,0.3-0.69,0.7-0.64c0.66,0.08,0.94-0.25,1.19-0.77c0.16-0.32,0.43-0.58,0.66-0.88c0.16,0.19,0.22,0.22,0.23,0.27
		c0.03,0.2,0.05,0.4,0.09,0.72c0.34-0.23,0.61-0.47,0.91-0.59c0.22-0.09,0.7-0.08,0.72-0.01c0.23,0.75,0.78,0.24,1.16,0.34
		c0.07,0.02,0.12,0.11,0.18,0.16c-0.15,0.21-0.29,0.41-0.44,0.62c0.12,0.13,0.2,0.31,0.34,0.36c0.57,0.21,1.39,0.21,1.69,0.6
		c0.42,0.57,0.92,0.8,1.5,1.03c0.04,0.02,0.1-0.01,0.33-0.03c0.31-0.27,0.46-1.3,1.36-0.69c0.38-0.27,0.76-0.55,1.08-0.77
		c0.33,0.21,0.57,0.46,0.86,0.54c0.59,0.16,1.21,0.24,1.95,0.38c-0.88,0.98,0.21,0.75,0.47,1.02c-0.15,0.21-0.3,0.42-0.72,1.01
		C143.01,126.12,143.58,126.84,144.23,127.37z M180.76,115.37c2.64-10.68,5.26-21.26,7.9-31.96c-2.49,0-4.85,0.01-7.22-0.01
		c-0.61,0-0.81,0.3-0.91,0.85c-0.74,4.33-1.5,8.66-2.27,12.98c-0.04,0.24-0.25,0.45-0.44,0.78c-0.73-2.63-1.42-5.1-2.09-7.57
		c-0.15-0.56-0.48-0.74-1.04-0.73c-1.26,0.03-2.53,0.01-3.91,0.01c-0.78,2.86-1.56,5.69-2.33,8.52c-0.07-0.01-0.13-0.03-0.2-0.04
		c-0.67-4.91-1.33-9.82-2.01-14.79c-1.42,0-2.68-0.01-3.94,0c-1.3,0.01-2.6-0.04-4,0.04c1.31,5.44,2.58,10.72,3.86,15.99
		c1.29,5.32,2.6,10.64,3.89,15.93c1.59,0,3.05,0,4.62,0c0.8-3.34,1.6-6.65,2.4-9.96c1.12,3.27,1.84,6.62,2.78,9.96
		C177.48,115.37,179.05,115.37,180.76,115.37z M65.27,86.92c-2.16-0.01-4.24-0.04-6.28,0.02c-0.05,0.27-0.08,0.37-0.08,0.48
		c0.1,6.79,0.22,13.58,0.31,20.37c0.01,0.74,0.29,1.33,0.76,1.84c0.5,0.54,1.01,1.08,1.57,1.55c1.71,1.44,3.24,1.42,4.96,0
		c0.35-0.29,0.7-0.59,1.2-1.02c-0.06,0.8-0.11,1.4-0.16,2.03c2.23,0,4.32,0,6.39,0c-0.06-1.1-0.09-2.13-0.18-3.17
		c-0.15-1.72-0.44-3.43-0.51-5.15c-0.19-4.37-0.07-8.73,0.31-13.09c0.02-0.26,0.1-0.51,0.13-0.77c0.13-1.02,0.26-2.05,0.05-3.05
		c-1.99,0-3.87,0-5.9,0c0.09,0.89,0.24,1.7,0.25,2.52c0.04,4.37,0.05,8.75,0.05,13.12c0,0.4-0.04,0.87-0.24,1.2
		c-0.74,1.27-1.79,2.15-3.32,2.41c-0.44-0.74-0.54-1.5-0.55-2.29c-0.05-3.21,0.18-6.39,0.57-9.58c0.26-2.13,0.45-4.27,0.67-6.41
		C65.3,87.65,65.27,87.35,65.27,86.92z M44.86,107.51c-0.52,1.26-1.36,6.1-1.25,7.19c2.44,0.81,4.96,0.87,7.47,0.66
		c1.71-0.14,3.29-0.78,4.28-2.32c1.24-1.94,1.93-4.08,1.96-6.37c0.08-5.95,0.08-11.91,0.13-17.86c0.01-0.73,0.15-1.46,0.18-2.19
		c0.03-1.04,0.01-2.08,0.01-3.1c-2.32-0.23-7.01-0.16-8.11,0.11c0.1,1.35,0.2,2.71,0.32,4.06c0.28,3.23,0.66,6.46,0.84,9.7
		c0.15,2.73,0.06,5.48,0.07,8.22c0,0.37,0,0.74-0.06,1.1c-0.19,1.16-0.71,1.64-1.9,1.69c-0.41,0.02-0.84-0.04-1.24-0.14
		C46.68,108.05,45.84,107.79,44.86,107.51z M216.94,102.59c0.3-0.29,0.59-0.6,0.91-0.87c2.19-1.78,3.19-5.97,1.88-8.98
		c-0.97-2.24-2.48-3.98-4.53-5.3c-0.56-0.36-1.1-0.55-1.76-0.54c-2.32,0.02-4.64,0.01-6.96,0.01c-0.41,0-0.81,0.04-1.28,0.07
		c0,0.56-0.01,1.03,0,1.5c0.09,2.42,0.22,4.83,0.27,7.25c0.07,3.79,0.1,7.58-0.25,11.36c-0.12,1.25-0.2,2.51-0.27,3.76
		c-0.03,0.45,0.02,0.91,0.03,1.33c2.23,0,4.32,0,6.55,0c-0.06-0.9-0.14-1.73-0.17-2.55c-0.05-1.31-0.09-2.63-0.11-3.94
		c-0.01-0.43,0.25-0.67,0.79-0.69c0.23,0.48,0.51,0.97,0.7,1.5c0.66,1.82,1.29,3.65,1.94,5.47c0.12,0.32,0.3,0.62,0.47,0.97
		c1.79-0.71,3.47-1.38,5.17-2.06C219.17,108.05,218.06,105.34,216.94,102.59z M75.05,112.26c1.28,0,2.33,0.01,3.38,0
		c1.08-0.02,2.17,0.07,3.35-0.08c-0.09-0.98-0.2-1.81-0.24-2.64c-0.06-1.26-0.07-2.53-0.08-3.79c-0.01-0.51,0.25-0.77,0.9-0.71
		c0.95,2.59,1.91,5.23,2.9,7.91c1.62-0.62,3.08-1.17,4.54-1.73c0.46-0.18,0.66-0.5,0.47-0.99c-0.19-0.49-0.39-0.97-0.59-1.45
		c-0.84-2.07-1.69-4.14-2.53-6.2c0.45-0.43,0.82-0.81,1.21-1.15c1.85-1.64,2.83-5.66,1.65-8.48c-0.99-2.35-2.53-4.2-4.69-5.56
		c-0.52-0.33-1.02-0.48-1.62-0.47c-1.79,0.02-3.58,0.01-5.38,0.01c-0.94,0-1.87,0-2.91,0c0,0.6-0.01,1.06,0,1.52
		c0.09,2.41,0.17,4.83,0.28,7.24c0.2,4.48-0.21,8.94-0.32,13.41C75.34,110.07,75.18,111.05,75.05,112.26z M237.86,112.26
		c2.16,0,4.17-0.06,6.17,0.02c2.34,0.09,4.43-0.57,6.43-1.74c4.4-2.58,6.89-7.91,5.57-13.25c-0.6-2.42-1.7-4.54-3.34-6.33
		c-2.31-2.53-5.09-4.2-8.7-4.05c-1.63,0.07-3.27,0.01-4.91,0.02c-0.4,0-0.81,0.05-1.34,0.09c0.12,1.14,0.29,2.17,0.33,3.21
		c0.13,3.05,0.26,6.1,0.3,9.15c0.02,1.78-0.13,3.57-0.21,5.35c-0.09,1.89-0.21,3.78-0.3,5.66
		C237.84,110.95,237.86,111.52,237.86,112.26z M102.62,106.28c0.12,0.55,0.26,1.04,0.33,1.54c0.15,1.2,0.26,2.4,0.38,3.6
		c0.05,0.46,0.19,0.83,0.75,0.83c1.72,0,3.44-0.01,5.2-0.01c0-0.37,0.04-0.58-0.01-0.77c-0.51-2.4-1.04-4.8-1.56-7.2
		c-1.17-5.52-2.35-11.04-3.5-16.57c-0.12-0.56-0.38-0.8-0.96-0.79c-1.94,0.02-3.89,0.01-5.99,0.01c-1.95,8.41-3.85,16.79-5.76,25.27
		c2.1,0,4.02,0,5.95,0c0.25-1.72,0.53-3.37,0.72-5.02c0.08-0.7,0.42-0.88,1.04-0.88C100.3,106.29,101.4,106.28,102.62,106.28z
		 M227.92,87.03c-2.32-0.23-5.73-0.16-6.83,0.12c0.07,0.25,0.19,0.49,0.21,0.75c0.22,2.98,0.58,5.96,0.61,8.95
		c0.04,4.73-0.15,9.47-0.23,14.2c-0.01,0.4,0.05,0.79,0.08,1.18c6.44,0.23,13.6,0.13,14.79-0.21c0-0.83,0.02-1.67-0.01-2.52
		c-0.03-0.88,0.13-1.77-0.14-2.73c-2.9,0.43-5.76,0.5-8.65,0.3C227.18,100.33,227.12,93.72,227.92,87.03z M109.73,109.56
		c1.39,1.18,2.59,2.21,3.79,3.22c0.77,0.64,0.98,0.65,1.74-0.06c0.96-0.9,1.97-1.78,2.78-2.8c0.97-1.23,1.9-2.53,2.58-3.93
		c0.96-1.95,0.8-3.96-0.4-5.82c-0.48-0.75-1.04-1.44-1.58-2.15c-0.58-0.76-1.07-1.54-1.14-2.54c-0.13-1.77,0.77-3.01,2.07-4.02
		c0.61-0.47,1.3-0.82,2.04-1.28c-1.68-1.18-3.3-2.33-4.98-3.52c-0.37,0.27-0.79,0.51-1.11,0.84c-1.01,1.07-2.06,2.11-2.95,3.28
		c-1.96,2.59-1.9,5.6,0.02,8.16c0.6,0.8,1.24,1.57,1.76,2.42c1.02,1.64,1,3.54-0.47,4.88c-0.93,0.85-1.9,1.65-2.88,2.45
		C110.66,108.98,110.25,109.21,109.73,109.56z M127.41,86.66c-1.62,1.1-2.88,2.49-4.01,4.02c-1.98,2.67-1.96,5.72,0,8.3
		c0.57,0.75,1.15,1.5,1.67,2.29c1.18,1.77,1.06,3.46-0.44,4.99c-0.88,0.89-1.9,1.65-2.87,2.45c-0.35,0.29-0.75,0.53-1.23,0.86
		c1.38,1.18,2.64,2.27,3.92,3.34c0.56,0.47,0.84,0.48,1.38-0.01c0.93-0.85,1.83-1.75,2.71-2.65c1.22-1.25,2.2-2.69,2.89-4.29
		c0.86-2,0.72-3.98-0.46-5.82c-0.51-0.79-1.13-1.51-1.68-2.28c-0.52-0.73-0.96-1.48-1.02-2.43c-0.11-1.78,0.81-3,2.11-4
		c0.6-0.46,1.28-0.81,2-1.25C130.71,89,129.12,87.88,127.41,86.66z M152.61,109.08c-0.88-0.44-1.53-0.69-2.08-1.07
		c-0.81-0.56-1.61-1.16-2.31-1.85c-1.48-1.45-2.22-3.31-2.45-5.32c-0.3-2.68,0.43-5.01,2.81-6.55c1.09-0.7,2.26-1.27,3.48-1.95
		c-0.62-1.8-1.43-3.59-2.29-5.5c-1.15,0.72-2.21,1.3-3.18,2c-2.89,2.1-4.93,4.81-5.87,8.3c-0.8,2.97-0.54,5.85,0.93,8.53
		c1.61,2.92,3.73,5.43,6.48,7.46C149.58,111.82,151.01,110.53,152.61,109.08z M204.61,99.41c-0.09-0.74-0.17-1.84-0.35-2.92
		c-0.46-2.7-1.53-5.13-3.44-7.11c-1.34-1.4-2.97-2.34-4.96-2.45c-2.63-0.14-4.72,1.02-6.31,2.96c-2.5,3.05-3.36,6.69-3.27,10.58
		c0.02,0.73,0.15,1.46,0.28,2.18c0.56,3.01,1.7,5.77,4.09,7.78c2.19,1.84,4.68,2.47,7.47,1.29c1.52-0.64,2.67-1.66,3.6-2.95
		C203.67,106.09,204.46,103.03,204.61,99.41z M139.73,86.91c-1.71,0-3.18,0-4.65,0c-1.57,0-1.52,0-1.47,1.59
		c0.13,4.62,0.26,9.25,0.31,13.87c0.02,1.73-0.16,3.46-0.27,5.18c-0.05,0.83-0.2,1.66-0.22,2.5c-0.02,0.71-0.21,1.45,0.09,2.2
		c0.99,0,1.94,0.01,2.88,0c0.98-0.02,1.97,0.08,3.09-0.08c-0.13-1.89-0.32-3.66-0.37-5.44c-0.14-5.57-0.25-11.15,0.31-16.71
		c0.02-0.21,0.1-0.41,0.12-0.61C139.61,88.63,139.66,87.86,139.73,86.91z M184.34,34.98c0-1.03-0.29-1.64-0.77-2.15
		c-0.54-0.58-1.11-1.13-1.67-1.68c-1.12-1.1-2.31-2.14-3.01-3.61c-0.24-0.51-0.65-0.95-1.05-1.36c-0.44-0.45-1.15-0.55-1.58-0.28
		c-0.47,0.29-0.6,0.77-0.47,1.24c0.31,1.14,0.12,2.38,0.91,3.44c0.59,0.78,0.38,1.57-0.3,2.28c-0.14,0.15-0.35,0.24-0.5,0.38
		c-0.63,0.59-0.69,1.05-0.07,1.59c1.11,0.97,2.03,2.09,2.92,3.25c0.6,0.78,1.33,0.9,2.24,0.47c1.17-0.55,2.11-1.38,2.88-2.39
		C184.17,35.75,184.26,35.2,184.34,34.98z M172.34,26.52c-0.1-1.86-0.78-3.54-1.5-5.23c-0.41-0.95-1.04-1.03-2.27-0.83
		c-0.8,0.13-1.46,1.05-1.3,1.89c0.15,0.75,0.49,1.47,0.8,2.18c0.14,0.33,0.42,0.6,0.57,0.93c0.45,0.98,0.29,1.55-0.57,2.16
		c-0.39,0.27-0.83,0.46-1.19,0.75c-0.72,0.57-1.33,1.35-1.15,2.26c0.19,0.97,1.04,1.58,1.98,1.83c0.84,0.23,1.53-0.21,2.03-0.89
		c0.68-0.93,1.31-1.89,1.99-2.82C172.21,28.07,172.39,27.33,172.34,26.52z M117.06,72.65c-0.36,0.56-0.49,1.05-0.32,1.67
		c0.29,1.05,0.44,2.13,0.69,3.19c0.14,0.58,0.44,1.13,1.13,1.13c1.34,0,2.7,0.15,4.01-0.09c0.2-1.82-0.51-2.98-2.14-3.64
		c-0.67-0.27-1.26-0.72-1.87-1.13C118.05,73.44,117.57,73.03,117.06,72.65z M113.7,72.2c-0.87,0.56-1.71,1.07-2.5,1.63
		c-0.18,0.13-0.3,0.45-0.3,0.68c-0.03,1.1-0.02,2.2,0.01,3.3c0.01,0.57,0.37,0.84,0.93,0.84c1.25,0,2.49,0,3.9,0
		C115.05,76.48,114.42,74.48,113.7,72.2z M183.76,39c0.18,0.19,0.27,0.34,0.4,0.41c1.52,0.79,3.14,1.09,4.83,0.89
		c0.35-0.04,0.67-0.4,0.94-0.57c-0.42-1.73-1.64-2.38-3.04-2.4C185.68,37.31,184.31,37.44,183.76,39z M132.87,127.06
		c-0.24,0.91-0.46,1.72-0.72,2.67c-0.58-0.55-0.89-1.36-1.84-1.13c0.1,0.68,0.18,1.28,0.26,1.77c1.27,0.87,2.44,0.02,3.58-0.01
		c0.13,0.33,0.22,0.57,0.32,0.81c0.41-0.1,0.76-0.23,1.12-0.24c0.2,0,0.48,0.15,0.58,0.32c0.17,0.29,0.36,0.41,0.6,0.2
		c0.17-0.15,0.37-0.51,0.31-0.65c-0.19-0.41-0.48-0.79-0.79-1.13c-0.42-0.45-0.89-0.01-1.47,0.21c0.21-0.7,0.35-1.16,0.56-1.88
		c-0.75,0.43-1.26,0.73-1.9,1.09C133.6,128.32,134.05,127.54,132.87,127.06z M124.55,63.83c-0.16-0.97,0.08-1.95-0.69-2.72
		c-0.99-1-1.43-1.43-2.18-1.63c0.66,1.22,1.28,2.38,2.08,3.87c-0.88-0.58-1.43-0.95-2.17-1.44c0.71,1.66,2.23,3.29,3.75,4.1
		c0-1.05,0-2.06,0-3.26C125.02,63.18,124.81,63.46,124.55,63.83z M125.67,74.38c0.28-1.67,0.35-3.03-1.22-3.88
		c-0.4-0.22-0.69-0.65-1.05-0.95c-0.17-0.15-0.39-0.23-0.77-0.44c0.1,0.82,0.27,1.43,0.24,2.04c-0.05,1.02,0.35,1.71,1.2,2.21
		C124.56,73.64,125.02,73.97,125.67,74.38z M105.94,74.81c0.59,1.73,1.46,2.81,2.5,3.75c0.15,0.13,0.54-0.01,0.91-0.02
		c-0.24-0.92-0.48-1.71-0.64-2.52c-0.16-0.77,0.1-1.61-0.33-2.62C107.79,74.34,107.36,75.19,105.94,74.81z M102.42,78.62
		c0.94,0.04,1.79,0.12,2.69-0.05c-0.44-0.95-0.84-1.77-1.6-2.45C102.92,76.86,102.18,77.42,102.42,78.62z M120.66,70.21
		c0.11-0.07,0.22-0.14,0.33-0.22c0.1-0.97-0.02-1.89-0.56-2.81c-0.76,0.21-1.22,0.63-1.59,1.31
		C119.47,69.1,120.06,69.66,120.66,70.21z M127.48,76.08c0.63-0.53,1.04-0.86,1.43-1.18c-0.65-1.39-0.65-1.39-1.51-1.95
		C127.32,73.94,127.28,74.83,127.48,76.08z M162.79,130.05c0.42,1.19,1.43,1.4,2.31,1.75c0.05,0.02,0.39-0.4,0.34-0.51
		c-0.1-0.26-0.32-0.56-0.56-0.65C164.28,130.4,163.64,130.28,162.79,130.05z M123.71,77.1c0.35,1.66,0.35,1.66,2.1,1.36
		C125.34,77.6,124.68,77.18,123.71,77.1z M128.18,130.09c-0.27,0.35-0.53,0.64-0.73,0.96c-0.09,0.15-0.11,0.38-0.07,0.56
		c0.03,0.11,0.23,0.22,0.36,0.24c0.49,0.05,1.11-0.36,1.2-0.77C129.08,130.48,128.73,130.23,128.18,130.09z M159.78,128.19
		c0.63,1.47,0.63,1.47,1.72,0.95C160.74,127.79,160.74,127.79,159.78,128.19z M159.79,130.57c0.39,0.72,0.6,1.12,0.88,1.63
		c0.19-0.34,0.37-0.54,0.41-0.77c0.05-0.28,0.07-0.75-0.07-0.83C160.78,130.47,160.4,130.57,159.79,130.57z M125.48,55.98
		c0,1.15,0,2.06,0,2.97C125.63,58.04,126.58,57.13,125.48,55.98z M135.02,125.63c-0.3,0.39-0.64,0.64-0.65,0.9
		c-0.03,0.41,0.37,0.55,0.76,0.53c0.41-0.02,0.54-0.3,0.45-0.62C135.51,126.2,135.29,126,135.02,125.63z M142.89,129.03
		c0.15-0.14,0.44-0.3,0.55-0.53c0.13-0.28-0.34-0.76-0.77-0.76c-0.15,0-0.38,0.17-0.42,0.31
		C142.14,128.46,142.44,128.96,142.89,129.03z M138.34,131.84c0.52-0.08,0.98-0.59,0.94-0.97c-0.01-0.1-0.19-0.26-0.29-0.27
		c-0.47-0.03-0.88,0.35-0.87,0.83C138.12,131.58,138.27,131.72,138.34,131.84z M126.13,128.94c-0.71-0.61-0.71-0.61-1.93-0.06
		c0.12,0.11,0.24,0.31,0.35,0.3C125.03,129.13,125.52,129.04,126.13,128.94z M149.78,129.58c-0.38-0.27-0.66-0.49-0.96-0.66
		c-0.09-0.05-0.29-0.01-0.37,0.06c-0.1,0.09-0.21,0.35-0.18,0.38c0.27,0.21,0.55,0.45,0.86,0.54
		C149.29,129.94,149.53,129.71,149.78,129.58z M163.38,132.38c-0.28-0.42-0.58-0.75-1.02-0.4c-0.13,0.1-0.19,0.55-0.09,0.65
		C162.64,133.01,162.99,132.8,163.38,132.38z M144.64,128.97c-0.21,0.31-0.42,0.49-0.45,0.7c-0.02,0.2,0.14,0.44,0.28,0.61
		c0.06,0.07,0.36,0.06,0.41-0.01c0.11-0.15,0.19-0.37,0.16-0.54C144.99,129.49,144.82,129.29,144.64,128.97z M125.97,130.1
		c-0.22,0.21-0.48,0.38-0.46,0.45c0.08,0.21,0.26,0.38,0.4,0.57c0.14-0.13,0.39-0.25,0.4-0.38
		C126.31,130.56,126.13,130.37,125.97,130.1z M139.79,127.72c0.15-0.21,0.3-0.44,0.45-0.66c-0.11-0.07-0.31-0.21-0.32-0.2
		c-0.17,0.22-0.32,0.45-0.47,0.68C139.53,127.58,139.61,127.63,139.79,127.72z M123.7,129.61c-0.34-0.11-0.55-0.23-0.76-0.22
		c-0.1,0-0.19,0.25-0.28,0.39c0.18,0.12,0.35,0.31,0.55,0.34C123.3,130.14,123.45,129.88,123.7,129.61z"/>
	<path class="st0" d="M215.84,78.65c-25.34,0-50.59,0-76.15,0c0.38-0.49,0.5-0.82,0.73-0.91c1.06-0.44,2.14-0.81,3.21-1.22
		c0.78-0.3,1.57-0.59,2.3-0.98c0.34-0.18,0.55-0.59,0.81-0.9c0.1-0.01,0.23-0.07,0.3-0.02c1.27,0.83,2.37,0.76,3.55-0.31
		c1.09-0.99,2.53-1.21,3.99-1.01c0.81,0.11,1.24,0.73,1.6,1.39c0.42,0.78,0.83,1.56,1.36,2.54c0.38-1.45,0.14-2.58-0.47-3.61
		c-0.48-0.81-1.05-1.55-1.86-2.11c-1.33-0.91-2.13-0.97-3.41,0c-0.53,0.4-1,0.76-1.76,0.32c0.29-0.67,0.52-1.36,0.89-1.95
		c0.15-0.25,0.63-0.39,0.96-0.4c1.41-0.07,2.82-0.11,4.15,0.64c-0.2-0.58-0.61-0.98-1.09-1.18c-1.59-0.67-3.18-1.38-4.97-1.34
		c-0.31,0.01-0.64,0.01-0.94,0.09c-1.36,0.33-1.54,0.63-1.31,2.03c-0.68,0.63-1.3,1.27-2,1.81c-0.44,0.34-0.97,0.58-1.49,0.79
		c-0.38,0.15-0.81,0.19-1.22,0.25c-0.62,0.09-1.06,0.36-1.28,1c-0.3,0.87-0.88,1.37-1.88,1.39c-0.5,0.01-1,0.29-1.51,0.41
		c-0.24,0.06-0.58,0.14-0.74,0.03c-0.87-0.59-1.69-0.21-2.58,0.03c-0.53-0.79-0.18-1.62,0.05-2.38c0.09-0.31,0.61-0.65,0.96-0.68
		c0.7-0.06,1.33-0.22,1.95-0.54c0.25-0.13,0.67-0.16,0.92-0.05c0.68,0.31,1.21,0.09,1.75-0.27c0.7-0.47,1.49-0.46,2.29-0.41
		c0.74,0.04,1.16-0.17,1.56-0.95c1.23-2.41,0.85-2.09,0.55-3.91c0.78-0.34,1.29-0.97,1.78-1.74c0.47-0.76,1.36-1.28,2.14-1.8
		c0.3-0.2,0.83-0.15,1.22-0.07c1.01,0.2,2,0.48,3.15,0.77c-0.5-1.16-1.49-1.57-2.45-1.82c-0.95-0.25-1.97-0.19-2.95-0.32
		c-1.18-0.16-1.72,1.07-2.84,1.3c0-0.6,0-1.11,0-1.72c0.79-0.37,1.59-0.91,2.47-1.1c0.89-0.2,1.85-0.04,2.79-0.17
		c-1.88-1.2-3.87-1.98-6-0.78c-1.15,0.65-2.34,1.46-2.22,3.1c0.01,0.16-0.05,0.37,0.04,0.47c1.02,1.22,0,2.62,0.31,3.9
		c0.06,0.26-0.25,0.64-0.45,0.91c-0.15,0.2-0.39,0.37-0.63,0.46c-1.64,0.66-3.19,1.55-4.89,2.03c-1.39,0.39-2.71,0.35-3.56-1.13
		c-0.27-0.46-0.78-0.42-1.09-0.13c-0.41,0.38-0.74,0.88-1.02,1.37c-0.23,0.4-0.34,0.86-0.55,1.43c-0.88-0.69-1.71-1.22-2.38-1.92
		c-0.36-0.38-0.52-1.03-0.57-1.58c-0.08-0.89-0.02-1.79,0.03-2.69c0.05-0.84,0.31-1.01,1.1-0.79c0.25,0.07,0.5,0.15,0.75,0.21
		c0.04,0.01,0.09-0.04,0.27-0.12c-0.39-0.55-0.77-1.08-1.13-1.62c-0.65-0.98-0.42-3.19,0.46-3.95c0.25-0.22,0.66-0.26,1.01-0.36
		c1.2-0.35,1.29-0.48,1.28-1.78c0-0.47-0.07-0.96-0.01-1.42c0.03-0.27,0.25-0.52,0.47-0.93c1.4,3.22,0.63,6.31,0.38,9.43
		c0.25-0.59,0.48-1.19,0.74-1.78c0.21-0.48,0.38-1.01,0.7-1.41c1.31-1.56,1.39-3.45,1.52-5.33c0.05-0.73,0.05-1.47,0.76-2.08
		c0.48,1.03,0.95,2,1.39,2.98c0.24,0.55-0.06,1.03-0.31,1.49c-0.54,1.02-1.17,2-1.64,3.05c-0.47,1.08-0.79,2.23-1.18,3.35
		c0.1,0.04,0.2,0.08,0.29,0.13c0.23-0.44,0.44-0.88,0.68-1.31c0.62-1.09,1.22-2.2,1.91-3.25c0.32-0.48,0.94-0.78,1.21-1.28
		c0.28-0.54,0.23-1.24,0.46-1.81c0.37-0.92,0.84-1.8,1.43-3.01c0.04,1.91-0.73,3.34-0.78,5.04c1.07-1.33,1.44-2.85,2.03-4.26
		c0.57-1.36,0.92-2.83,1.97-4.35c0.67,1.94,0.07,3.63,0.43,5.48c0.94-2.82,1.05-5.57,1.72-8.24c0.05,0.7,0.11,1.4,0.17,2.13
		c0.86-0.04,0.27-0.9,0.84-1.17c0,1.46,0,2.87,0,4.55c1.19-1.48,1.04-3.14,1.64-4.68c0.7,0.92,0.94,1.86,1.21,2.78
		c0.76,2.66,2.54,4.41,4.86,5.73c1.28,0.72,2.52,1.52,3.81,2.21c1.57,0.84,3.17,1.64,4.78,2.39c1.89,0.88,3.51,2.06,4.97,3.56
		c1.54,1.58,3.2,3.06,4.87,4.51c2.22,1.93,4.9,2.23,7.71,1.95c0.73-0.07,1.46-0.13,2.18-0.23c0.62-0.09,1.25-0.16,1.84-0.37
		c0.87-0.3,1.03-1.01,0.44-1.74c-0.54-0.67-1.21-1.2-2.05-1.4c-1.87-0.43-3.49-1.43-5.13-2.34c-0.86-0.48-1.68-1.09-2.4-1.77
		c-1.95-1.85-3.84-3.77-5.74-5.67c-1.49-1.5-2.34-3.34-2.74-5.39c-0.13-0.67-0.26-1.32-0.71-1.89c-0.39-0.49-0.65-1.08-0.42-1.84
		c0.66-0.22,1.28-0.27,1.76,0.43c0.09,0.13,0.17,0.28,0.29,0.36c0.3,0.19,0.6,0.49,0.99,0.17c0.35-0.27,0.34-0.6,0.2-0.99
		c-0.36-0.98-0.55-2.05-1.06-2.94c-0.9-1.59-2.2-2.81-3.96-3.45c-0.53-0.19-1.08-0.31-1.68-1.11c1.53,0.64,2.51,0.02,3.48-0.59
		c0.87-0.55,1.75-0.66,2.69-0.24c1.43,0.65,2.87,0.87,4.44,0.43c0.43-0.12,1.18,0.23,1.52,0.6c0.96,1.07,2.16,1.64,3.47,2.06
		c0.4,0.13,0.82,0.24,1.16,0.47c2.37,1.53,5.07,2.22,7.72,3.06c0.9,0.28,1.82,0.47,2.73,0.72c1.45,0.39,2.88,0.45,4.26-0.32
		c0.25,0.4,0.47,0.74,0.74,1.16c0.36-0.17,0.68-0.31,1.05-0.48c0.07,0.09,0.13,0.22,0.22,0.32c0.65,0.65,0.65,0.64,1.52,0.15
		c0.12-0.06,0.32-0.04,0.45,0.02c0.18,0.08,0.36,0.37,0.49,0.34c1.62-0.35,2.02,0.85,2.51,1.93c0.5,1.11,1.38,1.41,2.13,0.45
		c1.32-1.68,2.74-3.34,3.13-5.56c0.06-0.34,0-0.71-0.09-1.05c-0.37-1.52-1.26-2.75-2.2-3.96c-0.8-1.03-1.64-2.05-2.35-3.14
		c-0.57-0.88-1.34-1.48-2.22-1.95c-1.62-0.86-3.26-1.7-4.91-2.48c-0.86-0.41-1.64-0.89-2.42-1.45c-1.53-1.1-3.16-2.06-4.77-3.06
		c-1.2-0.75-2.46-1.41-3.64-2.2c-0.69-0.46-1.29-1.07-1.88-1.67c-0.63-0.65-1.3-1.2-2.13-1.6c-0.51-0.24-0.93-0.66-1.39-1.01
		c-0.46-0.35-0.93-0.69-1.34-1.09c-0.45-0.43-0.94-0.86-1.22-1.39c-0.64-1.21-1.61-1.74-2.94-1.73c-0.2,0-0.41-0.04-0.64-0.06
		c0.11-0.99-0.18-1.86-0.62-2.67c-0.34-0.61-1.1-0.76-1.66-0.74c-1.39,0.04-2.27-0.67-3.08-1.63c-0.53-0.62-1.11-1.08-2.03-0.96
		c-0.64,0.08-1.09,0.4-1.46,0.84c-0.71,0.83-1.63,1.15-2.66,1.1c-1.22-0.06-2.27,0.31-3.24,1c-0.53,0.37-1.1,0.61-1.77,0.54
		c-1.21-0.13-2.25,0.38-3.31,0.85c-0.28,0.13-0.55,0.31-0.84,0.41c-1.2,0.41-2.34,0.65-3.54-0.23c-0.82-0.6-2.01-0.54-2.86-1.25
		c-0.12-0.1-0.64,0.07-0.79,0.26c-0.15,0.19-0.17,0.63-0.05,0.84c0.24,0.4,0.66,0.68,0.94,1.06c0.31,0.41,0.62,0.85,0.78,1.33
		c0.25,0.73,0.36,1.49,0.55,2.29c-0.33,0.34-0.74,0.19-1.1-0.03c-0.94-0.57-1.92-1.1-2.78-1.78c-1.27-1.01-2.93-0.83-3.89,0.98
		c0.45,0.3,0.9,0.63,1.39,0.9c0.71,0.39,1.37,0.77,1.41,1.72c0.01,0.2,0.25,0.41,0.42,0.59c0.25,0.26,0.52,0.49,0.76,0.72
		c-0.29,0.71-0.78,0.9-1.43,0.84c-1.27-0.12-2.49-0.37-3.53-1.16c-0.56-0.43-1.15-0.71-1.87-0.73c-0.69-0.02-1.25,0.14-1.56,0.86
		c0.02,0.6,0.55,0.83,0.93,1.18c0.51,0.47,0.9,0.98,1.06,1.71c0.15,0.71,0.49,1.37,0.67,2.08c0.07,0.26,0.02,0.66-0.15,0.84
		c-0.17,0.18-0.59,0.3-0.82,0.22c-0.64-0.23-1.21-0.64-1.86-0.86c-0.58-0.2-1.21-0.3-1.82-0.31c-0.46-0.01-0.7,0.52-0.45,0.94
		c0.23,0.4,0.52,0.8,0.86,1.11c0.84,0.78,1.19,1.8,1.55,2.89c-0.93,0.22-1.31-0.72-2.13-0.76c-0.48,1.53,1.31,2.53,1.03,4.13
		c-1.08-0.61-2.07-1.16-3.02-1.69c-0.51,0.42-0.45,0.83-0.25,1.21c0.29,0.56,0.65,1.08,0.96,1.63c0.38,0.67,0.36,1.29-0.23,1.85
		c-0.76-0.5-1.49-0.99-2.2-1.46c-0.84,0.8-0.84,0.8-0.52,1.6c0.06,0.15,0.15,0.28,0.21,0.43c0.64,1.68,0.41,2.53-1.16,4
		c-0.37-0.43-0.73-0.88-1.12-1.31c-0.22-0.24-0.48-0.44-0.81-0.13c-0.28,0.26-0.26,0.52-0.07,0.84c0.24,0.4,0.45,0.83,0.67,1.25
		c0.12,0.23,0.33,0.46,0.34,0.69c0.01,0.26-0.16,0.53-0.25,0.8c-0.22-0.1-0.49-0.15-0.65-0.31c-0.4-0.42-0.74-0.89-1.13-1.32
		c-0.12-0.13-0.34-0.18-0.63-0.32c-0.06,0.36-0.15,0.61-0.12,0.84c0.03,0.36,0.2,0.72,0.21,1.08c0.01,0.44,0.3,1.05-0.25,1.27
		c-0.58,0.23-0.76-0.38-1-0.76c-0.42-0.66-0.85-1.33-1.29-1.98c-0.08-0.12-0.24-0.2-0.48-0.4c-0.15,0.36-0.32,0.66-0.39,0.98
		c-0.15,0.66-0.19,1.36-0.4,2c-0.19,0.58-0.49,1.16-1.22,1.52c-1.02-1.3-2.11-2.54-3.51-3.71c-0.78,1.67-0.06,3.6-1.34,4.94
		c-1.14-0.79-2.25-1.57-3.36-2.34c-0.26-0.18-0.52-0.36-0.81-0.48c-0.39-0.17-0.75,0.06-0.78,0.5c-0.03,0.68,0.01,1.37-0.01,2.06
		c-0.01,0.36-0.01,0.74-0.12,1.08c-0.13,0.45-0.66,0.61-1.03,0.32c-0.28-0.22-0.51-0.53-0.72-0.82c-0.18-0.26-0.27-0.57-0.46-0.83
		c-0.49-0.68-1.55-0.98-2.26-0.66c-0.59,0.27-1.15,1.23-0.95,1.99c0.17,0.67,0.17,1.24-0.18,1.81c-0.23,0.37-0.54,0.66-1.14,0.46
		c-0.04-0.31-0.08-0.66-0.15-1.01c-0.15-0.86-0.51-1.24-1.37-1.17c-0.88,0.07-1.77,0.24-2.61,0.5c-1.06,0.33-1.48,1.12-1.32,2.21
		c0.06,0.41,0.2,0.81,0.28,1.22c0.12,0.6-0.15,1.03-0.67,1.3c-0.28,0.14-0.59,0.22-0.88,0.34c-1.31,0.53-1.18,0.48-1.65-0.87
		c-0.29-0.85-0.98-1.58-1.59-2.28c-0.17-0.19-0.71-0.17-1.04-0.08c-1.11,0.29-2.21,0.65-3.31,0.98c-0.28,0.08-0.57,0.13-1.08,0.25
		c4.68-15.76,13.62-28.21,27.07-37.2c14.18-9.47,29.87-12.97,46.79-10.5c12.96,1.89,24.38,7.25,34.18,15.9
		c9.18,8.11,15.64,18.05,19.4,29.74C216,61.24,217.02,72.83,215.84,78.65z M196.05,50.8c-0.31,0.79-0.63,1.59-0.99,2.48
		c1.37-0.6,2.07-1.62,2.68-2.73c0.19-0.34,0.14-0.59-0.14-0.81c-0.33-0.27-0.6-0.06-0.81,0.16c-0.28,0.29-0.52,0.62-0.78,0.94
		c0-0.05,0.02-0.11,0.01-0.16c-0.05-0.48,0.32-1.08-0.3-1.41c-0.53-0.28-1.15,0.05-1.65,0.84c-0.11,0.17-0.17,0.38-0.26,0.56
		c-0.39,0.74-0.78,1.47-1.17,2.21c-0.12,0.23-0.22,0.46-0.39,0.83c1.59-0.56,2.7-1.38,3.44-2.66
		C195.76,50.94,195.93,50.89,196.05,50.8z M192.2,50.31c0.08-0.29,0.15-0.58,0.23-0.86c0.14-0.46-0.13-0.74-0.5-0.8
		c-0.25-0.04-0.58,0.12-0.81,0.29c-0.13,0.1-0.13,0.38-0.2,0.57c-0.43,1.36-0.87,2.73-1.33,4.18c0.44-0.3,0.87-0.58,1.3-0.87
		c0.1,0.19,0.16,0.33,0.25,0.5c1.26-1.06,2.29-2.24,2.65-3.99C192.87,49.26,192.75,49.99,192.2,50.31z M181.25,65.16
		c0.2,0.72,0.53,0.98,1.2,0.71c0.9-0.36,1.43-1.06,1.76-1.91c0.34-0.87,0.6-1.78,0.87-2.68c0.11-0.36,0.12-0.75,0.17-1.13
		C184.14,62.03,182.7,63.55,181.25,65.16z M179.1,63.42c0.84-0.1,1.33-0.5,1.61-1.18c0.32-0.77,0.71-1.51,0.96-2.3
		c0.28-0.87,0.67-1.75,0.37-2.65c-0.89,1.37-1.8,2.75-2.68,4.16C179.01,62.01,178.64,62.62,179.1,63.42z M181.46,51.58
		c0.82-0.58,1.51-0.95,2.06-1.47c0.6-0.57,1.13-1.24,1.59-1.94c0.38-0.57-0.03-1.14-0.73-1.17c-0.66-0.03-0.89,0.42-1.12,0.92
		C182.73,49.03,182.17,50.14,181.46,51.58z M179.95,51c0.06,0.04,0.13,0.08,0.19,0.11c0.54-0.57,1.15-1.08,1.59-1.71
		c0.5-0.72,0.88-1.52,1.25-2.32c0.18-0.4-0.13-0.85-0.56-0.95c-0.37-0.09-0.59,0.11-0.71,0.44C181.12,48.04,180.54,49.52,179.95,51z
		 M183.97,51.88c1.35-0.81,2.39-1.87,3.34-3.03c0.26-0.31,0.31-0.66-0.03-0.97c-0.36-0.32-0.74-0.34-1.12-0.03
		c-0.12,0.1-0.24,0.21-0.31,0.35C185.22,49.43,184.6,50.66,183.97,51.88z M178.32,58.01c-1.08,1.15-2.02,2.12-2.93,3.12
		c-0.58,0.65-0.42,1.07,0.55,1.6C176.95,61.81,177.57,60.62,178.32,58.01z M179.24,58.93c-0.9,1.35-1.63,2.43-2.34,3.52
		c-0.28,0.43-0.34,0.9,0.07,1.28c0.26,0.24,0.88-0.04,1.13-0.59C178.66,61.91,179.18,60.66,179.24,58.93z M189.75,48.59
		c-0.81-0.67-1.06-0.72-1.45-0.29c-0.36,0.39-1.37,2.7-1.54,3.65C187.91,50.81,189.08,49.93,189.75,48.59z M199.66,51.06
		c-0.9,1.17-2,1.91-2.79,3.18c1.55-0.42,2.86-0.83,3.65-2.21C200.24,51.72,200.01,51.45,199.66,51.06z M170.85,57.91
		c1.17-1.18,2.28-2.17,2.35-3.72c-1,0.93-2.02,1.88-3.16,2.93C170.29,57.36,170.51,57.58,170.85,57.91z M176.06,57.7
		c-0.11-0.1-0.18-0.17-0.18-0.17c-0.76,0.76-1.54,1.51-2.26,2.31c-0.11,0.12-0.06,0.52,0.06,0.7c0.36,0.56,1.09,0.54,1.39-0.1
		C175.49,59.56,175.75,58.6,176.06,57.7z M178.49,64.46c1.21,1.1,1.43,1.13,2.2,0.22c0.52-0.61,0.97-1.29,1.45-1.94
		c-0.06-0.06-0.11-0.11-0.17-0.17C180.87,63.18,179.76,63.78,178.49,64.46z M185.88,63.06c-0.07-0.08-0.14-0.15-0.22-0.23
		c-0.73,1.01-1.47,2.01-2.17,3.04c-0.1,0.15-0.05,0.57,0.08,0.67c0.15,0.12,0.54,0.12,0.69-0.01c0.27-0.22,0.5-0.54,0.64-0.86
		C185.26,64.82,185.56,63.94,185.88,63.06z M187.06,64.52c-0.08-0.04-0.16-0.08-0.23-0.11c-0.34,0.5-0.68,0.99-1.01,1.49
		c-0.28,0.43-0.58,0.86-0.78,1.33c-0.07,0.17,0.05,0.57,0.19,0.64c0.17,0.08,0.47-0.05,0.69-0.13c0.08-0.03,0.15-0.15,0.18-0.24
		C186.43,66.5,186.74,65.51,187.06,64.52z M178.65,49.09c0.08,0.06,0.17,0.12,0.25,0.18c0.54-0.7,1.12-1.37,1.62-2.1
		c0.23-0.33,0.35-0.75,0.48-1.15c0.03-0.09-0.09-0.3-0.19-0.36c-0.1-0.06-0.32-0.05-0.4,0.03c-0.22,0.22-0.44,0.45-0.57,0.73
		C179.43,47.3,179.05,48.2,178.65,49.09z M188.41,52.25c1.13-0.5,1.7-1.21,1.86-2.03c0.06-0.29-0.07-0.62-0.12-0.93
		c-0.1-0.01-0.19-0.01-0.29-0.02C189.38,50.26,188.9,51.25,188.41,52.25z M174.24,56.12c-0.1-0.06-0.2-0.11-0.29-0.17
		c-0.17,0.2-0.34,0.4-0.51,0.6c-0.44,0.52-0.92,1.02-1.3,1.58c-0.13,0.19-0.11,0.66,0.04,0.82c0.25,0.27,0.57,0.13,0.75-0.21
		C173.36,57.86,173.8,56.99,174.24,56.12z M170.69,53.65c-0.61,0.46-1.24,0.9-1.81,1.4c-0.1,0.09-0.01,0.46,0.08,0.67
		c0.02,0.06,0.41,0.07,0.51-0.02C170.07,55.17,170.67,54.61,170.69,53.65z M198.98,50.1c-0.92,0.5-1.27,1.34-1.76,2.36
		C198.86,51.62,199.18,51.17,198.98,50.1z M177.96,47.05c0.86-0.23,1.35-0.81,1.58-1.58c0.05-0.16-0.1-0.37-0.16-0.56
		c-0.18,0.06-0.46,0.06-0.52,0.18C178.53,45.73,178.26,46.39,177.96,47.05z M169.81,51.95c-0.66,0.63-1.11,1.04-1.54,1.49
		c-0.08,0.08-0.09,0.38-0.04,0.4c0.16,0.09,0.45,0.19,0.53,0.11C169.25,53.52,169.72,53.05,169.81,51.95z M177.46,45.68
		c0.11-0.05,0.17-0.06,0.2-0.09c0.29-0.26,0.72-0.45,0.54-0.97c-0.02-0.06-0.18-0.14-0.24-0.11c-0.44,0.15-0.59,0.51-0.6,0.94
		C177.35,45.49,177.39,45.53,177.46,45.68z M169.06,51.33c-0.08-0.08-0.16-0.15-0.24-0.23c-0.38,0.32-1.16,0.33-0.85,1.38
		C168.39,52.04,168.73,51.69,169.06,51.33z"/>
	<path class="st0" d="M144.23,127.37c-0.66-0.52-1.22-1.25-2.57-0.72c0.42-0.59,0.57-0.8,0.72-1.01c-0.26-0.27-1.35-0.04-0.47-1.02
		c-0.73-0.14-1.35-0.21-1.95-0.38c-0.29-0.08-0.53-0.32-0.86-0.54c-0.31,0.22-0.69,0.5-1.08,0.77c-0.9-0.61-1.05,0.42-1.36,0.69
		c-0.23,0.02-0.29,0.04-0.33,0.03c-0.58-0.23-1.08-0.47-1.5-1.03c-0.3-0.4-1.12-0.4-1.69-0.6c-0.13-0.05-0.22-0.22-0.34-0.36
		c0.15-0.21,0.29-0.41,0.44-0.62c-0.06-0.06-0.11-0.15-0.18-0.16c-0.38-0.1-0.93,0.41-1.16-0.34c-0.02-0.07-0.5-0.08-0.72,0.01
		c-0.31,0.12-0.57,0.36-0.91,0.59c-0.04-0.32-0.05-0.52-0.09-0.72c-0.01-0.04-0.07-0.08-0.23-0.27c-0.23,0.3-0.5,0.56-0.66,0.88
		c-0.25,0.52-0.53,0.86-1.19,0.77c-0.41-0.05-0.87,0.35-0.7,0.64c0.4,0.71-0.04,1.16-0.25,1.72c-0.18,0.47-0.17,0.93,0.35,1.3
		c0.25-0.4,0.51-0.8,0.95-1.5c0.07,0.58,0.12,0.79,0.12,1.01c0,0.19-0.11,0.41-0.04,0.55c0.47,1.03,0.48,1.02,0.2,2.07
		c-0.32-0.48-0.52-0.94-0.85-1.25c-0.33-0.31-0.79-0.48-1.19-0.71c-1.55,0.71-1.55,0.71-1.94-0.57c-0.62,0.19-1.25,0.38-1.93,0.59
		c-0.26-1.08,0.76-1.79,0.76-2.97c-0.98,0.81-1.8,1.5-2.71,2.25c-0.14-0.37-0.26-0.66-0.4-1.03c-0.63,0.47-1.18,0.88-1.92,1.42
		c0,0.63-0.11,1.47-0.69,2.22c-0.32,0.41-0.3,1.08-0.44,1.63c-4.86-2.53-12.55-8.35-13.79-10.47c30.81,0,61.59,0,92.41,0
		c-1.17,2-9.13,8.05-12.35,9.67c-0.67-0.58-0.67-0.58-0.09-1.73c-0.99-0.27-1.97-0.72-2.92,0.14c-0.09-0.31-0.17-0.55-0.26-0.83
		c-1.07,0.61-1.46,1.6-1.59,2.82c-0.72-0.36-0.39-0.97-0.54-1.39c-0.38-0.16-0.76-0.32-1.28-0.54c-0.17,0.41-0.44,0.87-0.54,1.36
		c-0.1,0.49-0.35,0.76-0.8,0.83c-0.11,0.02-0.26-0.17-0.39-0.26c0.44-0.55-0.37-0.63-0.4-1.14c0.49-0.34,1.31-0.65,0.78-1.62
		c-0.79-0.21-1.61-0.43-2.44-0.66c1.14-0.1,1.14-0.1,2.18-0.6c-0.82-1.02-1.99-0.72-3.11-0.76c0.4-0.95,1.25-0.47,1.81-0.81
		c-0.67-0.99-1.77-1.26-2.76-1.69c-0.19-0.08-0.6,0.15-0.8,0.34c-0.22,0.21-0.3,0.54-0.46,0.82c-0.1,0.18-0.25,0.51-0.33,0.5
		c-1.13-0.16-1.16,0.58-1.27,1.38c-0.11,0.8,0.38,1.38,0.56,2.09c0.07,0.25-0.5,0.67-0.89,1.15c0.59,0,0.99,0,1.41,0
		c-0.02,0.16,0.01,0.29-0.04,0.32c-0.42,0.31-0.85,0.6-1.26,0.89c-0.62-0.34-1.22-0.62-1.77-0.99c-0.23-0.15-0.48-0.49-0.46-0.73
		c0.02-0.21,0.36-0.44,0.61-0.59c0.48-0.28,1-0.5,1.47-0.73c-0.23-1.04-1.24-0.84-1.84-1.5c0.48-0.1,0.86-0.18,1.26-0.26
		c-0.43-1.27-1.8-0.45-2.41-1.24c0.17-0.26,0.34-0.5,0.55-0.82c-0.67-0.06-1.22-0.52-1.86-0.13c-0.06,0.04-0.33-0.09-0.35-0.18
		c-0.13-0.58-0.52-0.43-0.86-0.3c-0.49,0.19-0.95,0.48-1.46,0.01c-0.08-0.07-0.43,0-0.53,0.12c-0.33,0.4-0.84,0.83-0.86,1.27
		c-0.07,1.36-1.14,2.07-1.77,3.06c-0.07,0.11-0.25,0.14-0.44,0.25c-0.03-0.2-0.07-0.34-0.05-0.48c0.01-0.14,0.09-0.27,0.17-0.51
		c-0.42,0.05-0.76,0.09-1.22,0.14c0.2-0.46,0.37-0.86,0.63-1.46c-1.28,0.57-2.39,1.06-3.55,1.57c-0.09-0.13-0.2-0.29-0.34-0.51
		c-0.53,0.28-0.83,1.14-1.73,0.74c0.09-0.33,0.17-0.65,0.28-1.03c-0.41-0.05-0.76-0.1-1.15-0.15c0.39-0.98,0.77-1.92,1.19-2.95
		c-1.08,0.11-1.49,1.03-2.35,1.57c0-0.51,0-0.87,0-1.26c-0.64,0.11-0.89-0.23-0.98-0.68c-0.54,0.54-1.12,1.05-1.61,1.64
		c-0.21,0.26-0.22,0.68-0.34,1.08c-1.24-0.41-0.85-2.19-2.21-2.5c-0.52,1.03-0.04,1.71,0.83,2.36
		C144.28,125.82,145.27,126.82,144.23,127.37z"/>
	<path class="st0" d="M180.76,115.37c-1.71,0-3.28,0-4.89,0c-0.94-3.34-1.66-6.69-2.78-9.96c-0.8,3.31-1.59,6.62-2.4,9.96
		c-1.57,0-3.04,0-4.62,0c-1.29-5.29-2.6-10.61-3.89-15.93c-1.28-5.27-2.55-10.55-3.86-15.99c1.4-0.08,2.7-0.03,4-0.04
		c1.26-0.01,2.52,0,3.94,0c0.67,4.97,1.34,9.88,2.01,14.79c0.07,0.01,0.13,0.03,0.2,0.04c0.77-2.83,1.55-5.66,2.33-8.52
		c1.38,0,2.65,0.02,3.91-0.01c0.56-0.01,0.89,0.17,1.04,0.73c0.67,2.47,1.36,4.94,2.09,7.57c0.19-0.32,0.4-0.54,0.44-0.78
		c0.77-4.32,1.53-8.65,2.27-12.98c0.09-0.55,0.3-0.85,0.91-0.85c2.37,0.02,4.73,0.01,7.22,0.01
		C186.02,94.11,183.4,104.69,180.76,115.37z M168.25,111.39c-1.71-8.79-3.38-17.4-5.07-26.08c-0.32,0.05-0.65,0.11-1.06,0.17
		c0.12,0.45,0.23,0.8,0.31,1.15c0.85,3.77,1.72,7.54,2.53,11.32c0.8,3.73,1.53,7.47,2.28,11.21c0.24,1.18,0.44,2.36,0.65,3.55
		c0.08,0.44,0.21,0.81,0.86,0.7c1.43-6.57,2.86-13.15,4.33-19.9c0.23,0.32,0.38,0.43,0.41,0.56c1.42,5.95,2.83,11.89,4.25,17.84
		c0.11,0.46,0.22,0.92,0.37,1.36c0.04,0.1,0.25,0.19,0.39,0.19c0.13,0,0.36-0.1,0.38-0.2c0.16-0.55,0.27-1.12,0.39-1.68
		c0.77-3.63,1.5-7.27,2.32-10.89c1.07-4.74,2.22-9.46,3.32-14.19c0.08-0.33,0.01-0.7,0.01-1.12c-0.41,0-0.74,0-1.05,0
		c-1.7,8.7-3.4,17.29-5.35,26.18c-0.25-0.72-0.41-1.11-0.51-1.51c-1.19-4.87-2.36-9.75-3.54-14.62c-0.27-1.12-0.54-2.23-0.85-3.34
		c-0.05-0.19-0.33-0.32-0.51-0.48c-0.15,0.18-0.4,0.34-0.44,0.54c-0.35,1.58-0.64,3.18-0.98,4.76c-0.98,4.6-1.96,9.2-2.96,13.79
		C168.68,110.91,168.49,111.06,168.25,111.39z"/>
	<path class="st0" d="M65.27,86.92c0,0.43,0.03,0.73,0,1.03c-0.21,2.14-0.41,4.27-0.67,6.41c-0.39,3.18-0.62,6.37-0.57,9.58
		c0.01,0.79,0.11,1.55,0.55,2.29c1.53-0.26,2.59-1.14,3.32-2.41c0.2-0.34,0.24-0.8,0.24-1.2c0-4.37-0.01-8.75-0.05-13.12
		c-0.01-0.82-0.16-1.63-0.25-2.52c2.03,0,3.92,0,5.9,0c0.21,1,0.08,2.02-0.05,3.05c-0.03,0.26-0.11,0.51-0.13,0.77
		c-0.38,4.36-0.5,8.72-0.31,13.09c0.07,1.72,0.36,3.43,0.51,5.15c0.09,1.03,0.12,2.07,0.18,3.17c-2.07,0-4.16,0-6.39,0
		c0.05-0.63,0.1-1.22,0.16-2.03c-0.5,0.43-0.85,0.73-1.2,1.02c-1.72,1.42-3.25,1.43-4.96,0c-0.56-0.47-1.07-1.01-1.57-1.55
		c-0.47-0.51-0.75-1.11-0.76-1.84c-0.09-6.79-0.21-13.58-0.31-20.37c0-0.1,0.03-0.21,0.08-0.48C61.04,86.88,63.11,86.91,65.27,86.92
		z M70.31,104.53c0,1.71-0.01,3.18,0.01,4.64c0.01,0.38-0.2,1.04,0.3,1.05c0.75,0.02,0.39-0.72,0.39-1.1
		c0.02-6.43,0.02-12.85,0.01-19.28c0-0.26-0.01-0.53-0.05-0.78c-0.01-0.07-0.17-0.17-0.23-0.16c-0.13,0.03-0.34,0.11-0.36,0.2
		c-0.05,0.36-0.05,0.73-0.05,1.1c0.01,3.74-0.04,7.48,0.06,11.22c0.03,1.39-0.23,2.58-1.16,3.61c-0.07,0.08-0.1,0.19-0.16,0.27
		c-1.02,1.26-1.91,2.66-3.37,3.5c-0.58,0.33-1.18,0.68-1.91,0.49c-1.31-0.34-1.96-1.09-1.95-2.48c0.03-2.1,0.16-4.19,0.21-6.29
		c0.1-3.73,0.18-7.47,0.25-11.2c0-0.15-0.24-0.3-0.38-0.45c-0.13,0.12-0.31,0.23-0.39,0.38c-0.07,0.13-0.03,0.31-0.03,0.47
		c-0.02,5.74,0.02,11.49-0.1,17.23c-0.04,1.93,1.97,3.52,4.1,2.51c1.33-0.63,2.25-1.72,3.18-2.78
		C69.23,106.05,69.68,105.37,70.31,104.53z"/>
	<path class="st0" d="M44.86,107.51c0.97,0.28,1.82,0.54,2.68,0.75c0.4,0.1,0.83,0.16,1.24,0.14c1.19-0.05,1.71-0.53,1.9-1.69
		c0.06-0.36,0.06-0.74,0.06-1.1c-0.01-2.74,0.08-5.48-0.07-8.22c-0.17-3.24-0.56-6.47-0.84-9.7c-0.12-1.35-0.21-2.71-0.32-4.06
		c1.1-0.27,5.79-0.34,8.11-0.11c0,1.02,0.02,2.06-0.01,3.1c-0.02,0.73-0.17,1.46-0.18,2.19c-0.05,5.95-0.05,11.91-0.13,17.86
		c-0.03,2.29-0.72,4.44-1.96,6.37c-0.99,1.55-2.57,2.18-4.28,2.32c-2.51,0.21-5.03,0.15-7.47-0.66
		C43.51,113.61,44.34,108.77,44.86,107.51z M45.67,111.94c1.97,0.57,3.78,0.82,5.66,0.2c1.53-0.51,2.32-1.6,2.53-3.1
		c0.21-1.55,0.35-3.13,0.36-4.7c0.03-4.69,0-9.37-0.05-14.06c-0.01-1.47-0.15-2.93-0.25-4.39c-0.01-0.15-0.07-0.4-0.14-0.41
		c-0.22-0.04-0.5-0.06-0.68,0.04c-0.11,0.07-0.11,0.38-0.1,0.58c0.17,2.24,0.45,4.48,0.51,6.73c0.1,4.05,0.09,8.11,0.07,12.16
		c-0.01,1.36-0.17,2.72-0.34,4.07c-0.18,1.45-1.28,2.46-2.75,2.56c-1.42,0.1-2.84,0.07-4.19-0.46c-0.07-0.03-0.17,0.02-0.26,0.04
		C45.94,111.39,45.85,111.57,45.67,111.94z"/>
	<path class="st0" d="M216.94,102.59c1.13,2.75,2.23,5.47,3.39,8.29c-1.69,0.68-3.38,1.35-5.17,2.06c-0.17-0.35-0.35-0.65-0.47-0.97
		c-0.65-1.82-1.28-3.65-1.94-5.47c-0.19-0.53-0.48-1.02-0.7-1.5c-0.54,0.02-0.79,0.25-0.79,0.69c0.02,1.31,0.06,2.63,0.11,3.94
		c0.03,0.83,0.11,1.65,0.17,2.55c-2.24,0-4.33,0-6.55,0c-0.01-0.42-0.06-0.88-0.03-1.33c0.07-1.26,0.15-2.51,0.27-3.76
		c0.35-3.78,0.32-7.57,0.25-11.36c-0.05-2.42-0.18-4.83-0.27-7.25c-0.02-0.47,0-0.93,0-1.5c0.47-0.03,0.88-0.07,1.28-0.07
		c2.32-0.01,4.64,0.01,6.96-0.01c0.66-0.01,1.2,0.18,1.76,0.54c2.04,1.32,3.56,3.06,4.53,5.3c1.31,3.01,0.31,7.2-1.88,8.98
		C217.53,101.98,217.24,102.29,216.94,102.59z M214.11,101.61c0.23-0.21,0.39-0.42,0.61-0.56c1.13-0.7,1.77-1.77,2.3-2.93
		c1.48-3.2,0.01-7.72-3.98-8.88c-1.44-0.42-2.89-0.47-4.36-0.39c-0.74,0.04-0.89,0.21-0.87,1c0.02,0.89,0.19,1.77,0.18,2.66
		c-0.03,2.94-0.13,5.88-0.18,8.82c-0.05,2.84-0.07,5.69-0.09,8.53c0,0.14,0.11,0.27,0.18,0.45c0.27-0.02,0.51-0.05,0.79-0.07
		c0.02-0.28,0.06-0.49,0.05-0.69c-0.02-1.69-0.03-3.37-0.07-5.06c-0.02-0.62,0.17-0.95,0.81-1.13c1.05-0.31,2.07-0.73,3.1-1.11
		c0.74-0.27,0.89-0.22,1.16,0.54c0.76,2.12,1.49,4.24,2.24,6.36c0.1,0.3,0.17,0.63,0.35,0.87c0.12,0.16,0.46,0.31,0.61,0.25
		c0.16-0.07,0.31-0.4,0.3-0.6c-0.02-0.3-0.19-0.59-0.3-0.88C215.99,106.4,215.06,104.01,214.11,101.61z"/>
	<path class="st0" d="M75.05,112.26c0.12-1.21,0.29-2.19,0.32-3.17c0.11-4.47,0.52-8.93,0.32-13.41c-0.11-2.41-0.19-4.83-0.28-7.24
		c-0.02-0.46,0-0.93,0-1.52c1.04,0,1.98,0,2.91,0c1.79,0,3.58,0.01,5.38-0.01c0.6-0.01,1.1,0.15,1.62,0.47
		c2.16,1.36,3.7,3.21,4.69,5.56c1.18,2.82,0.2,6.84-1.65,8.48c-0.39,0.35-0.76,0.72-1.21,1.15c0.84,2.06,1.68,4.13,2.53,6.2
		c0.2,0.48,0.4,0.97,0.59,1.45c0.2,0.49-0.01,0.82-0.47,0.99c-1.46,0.56-2.92,1.11-4.54,1.73c-0.98-2.69-1.95-5.32-2.9-7.91
		c-0.65-0.07-0.91,0.2-0.9,0.71c0.01,1.26,0.03,2.53,0.08,3.79c0.04,0.83,0.15,1.66,0.24,2.64c-1.18,0.15-2.27,0.06-3.35,0.08
		C77.38,112.27,76.33,112.26,75.05,112.26z M78,110.23c0.5,0.1,0.89,0.18,0.95-0.37c0.03-0.31,0-0.63-0.01-0.95
		c-0.02-1.47-0.03-2.95-0.06-4.42c-0.01-0.44,0.01-0.87,0.5-1.04c1.37-0.47,2.74-0.93,4.17-1.41c0.15,0.29,0.3,0.51,0.38,0.74
		c0.75,2.12,1.49,4.24,2.24,6.36c0.1,0.3,0.17,0.62,0.35,0.87c0.12,0.16,0.46,0.31,0.6,0.25c0.16-0.07,0.31-0.4,0.3-0.6
		c-0.02-0.3-0.19-0.59-0.3-0.88c-0.93-2.38-1.87-4.76-2.81-7.17c0.23-0.21,0.39-0.42,0.61-0.56c1.13-0.69,1.77-1.77,2.3-2.93
		c1.49-3.26-0.02-7.76-3.98-8.87c-1.43-0.4-2.88-0.53-4.36-0.41c-0.74,0.06-0.89,0.21-0.87,1c0.03,1.04,0.2,2.09,0.18,3.13
		c-0.04,3.68-0.15,7.35-0.2,11.03C77.97,106.06,78,108.1,78,110.23z"/>
	<path class="st0" d="M237.86,112.26c0-0.73-0.02-1.3,0-1.87c0.09-1.89,0.21-3.78,0.3-5.66c0.09-1.78,0.24-3.57,0.21-5.35
		c-0.04-3.05-0.17-6.1-0.3-9.15c-0.05-1.04-0.21-2.07-0.33-3.21c0.53-0.04,0.93-0.09,1.34-0.09c1.64-0.01,3.27,0.05,4.91-0.02
		c3.61-0.15,6.38,1.53,8.7,4.05c1.64,1.8,2.74,3.92,3.34,6.33c1.32,5.34-1.17,10.67-5.57,13.25c-1.99,1.17-4.08,1.83-6.43,1.74
		C242.03,112.19,240.03,112.26,237.86,112.26z M240.36,110c1.52,0,2.84,0.01,4.16,0c0.26,0,0.53-0.04,0.78-0.1
		c2.82-0.77,5.21-2.23,6.92-4.64c2.61-3.69,2.51-8.76-1.11-12.38c-2.83-2.83-6.35-3.95-10.45-3.32
		C240.58,96.34,240.9,103.11,240.36,110z"/>
	<path class="st0" d="M102.62,106.28c-1.22,0-2.32,0.01-3.42,0c-0.62-0.01-0.96,0.18-1.04,0.88c-0.19,1.66-0.47,3.3-0.72,5.02
		c-1.93,0-3.85,0-5.95,0c1.91-8.48,3.81-16.86,5.76-25.27c2.1,0,4.05,0.01,5.99-0.01c0.58-0.01,0.84,0.23,0.96,0.79
		c1.16,5.52,2.33,11.05,3.5,16.57c0.51,2.4,1.04,4.8,1.56,7.2c0.04,0.2,0.01,0.41,0.01,0.77c-1.75,0-3.47,0.01-5.2,0.01
		c-0.55,0-0.7-0.37-0.75-0.83c-0.12-1.2-0.23-2.4-0.38-3.6C102.88,107.33,102.74,106.83,102.62,106.28z M98.93,88.9
		c-0.13,0.39-0.29,0.77-0.37,1.17c-0.47,2.36-0.87,4.73-1.38,7.08c-0.87,3.98-1.81,7.94-2.71,11.91c-0.06,0.25-0.11,0.53-0.06,0.78
		c0.03,0.17,0.21,0.41,0.34,0.43c0.22,0.03,0.57-0.03,0.68-0.18c0.17-0.24,0.2-0.58,0.25-0.88c0.24-1.39,0.46-2.79,0.69-4.18
		c0.07-0.41,0.27-0.68,0.72-0.68c2.47,0,4.93,0,7.49,0c0.23,1.13,0.35,2.17,0.66,3.16c0.3,0.93,0.04,2.07,0.91,2.86
		c0.15-0.15,0.28-0.24,0.27-0.29c-1.26-6.77-2.53-13.55-3.81-20.32c-0.06-0.29-0.24-0.56-0.36-0.84
		C101.11,88.9,100.07,88.9,98.93,88.9z"/>
	<path class="st0" d="M227.92,87.03c-0.8,6.7-0.75,13.3-0.18,20.04c2.89,0.2,5.75,0.13,8.65-0.3c0.27,0.95,0.11,1.85,0.14,2.73
		c0.03,0.84,0.01,1.68,0.01,2.52c-1.18,0.34-8.35,0.43-14.79,0.21c-0.03-0.38-0.09-0.78-0.08-1.18c0.08-4.73,0.27-9.47,0.23-14.2
		c-0.02-2.98-0.38-5.96-0.61-8.95c-0.02-0.25-0.14-0.5-0.21-0.75C222.19,86.86,225.6,86.8,227.92,87.03z M234.6,108.87
		c-1.66,0.07-3.18,0.16-4.69,0.2c-1.56,0.04-3.12,0.07-4.77-0.04c0-0.72,0-1.29,0-1.87c0-5.58,0-11.16,0-16.74
		c0-0.42,0.02-0.85-0.04-1.26c-0.02-0.12-0.3-0.29-0.45-0.28c-0.15,0-0.4,0.17-0.44,0.31c-0.07,0.3-0.04,0.62-0.04,0.94
		c-0.01,6.27-0.01,12.53-0.01,18.8c0,0.35,0.04,0.7,0.06,1.02c3.52,0,6.92,0,10.38,0C234.6,109.54,234.6,109.24,234.6,108.87z"/>
	<path class="st0" d="M109.73,109.56c0.52-0.35,0.93-0.58,1.29-0.88c0.97-0.8,1.94-1.6,2.88-2.45c1.47-1.34,1.49-3.24,0.47-4.88
		c-0.53-0.84-1.16-1.62-1.76-2.42c-1.92-2.56-1.97-5.57-0.02-8.16c0.88-1.17,1.94-2.21,2.95-3.28c0.32-0.33,0.74-0.57,1.11-0.84
		c1.68,1.19,3.31,2.33,4.98,3.52c-0.74,0.46-1.44,0.81-2.04,1.28c-1.3,1-2.2,2.24-2.07,4.02c0.07,1,0.57,1.78,1.14,2.54
		c0.54,0.71,1.1,1.41,1.58,2.15c1.19,1.86,1.36,3.87,0.4,5.82c-0.69,1.4-1.61,2.7-2.58,3.93c-0.81,1.03-1.82,1.9-2.78,2.8
		c-0.76,0.72-0.97,0.71-1.74,0.06C112.32,111.77,111.13,110.75,109.73,109.56z M114.37,110.64c0.57-0.63,1.19-1.27,1.76-1.95
		c2.53-3.01,2.97-6.68,0.22-9.84c-0.51-0.59-0.95-1.26-1.3-1.96c-1.06-2.08-0.6-3.89,0.74-5.52c0.43-0.52,1.03-0.89,1.5-1.38
		c0.13-0.14,0.1-0.45,0.14-0.68c-0.23-0.03-0.53-0.17-0.68-0.08c-2.27,1.37-3.52,4.83-2.59,7.29c0.25,0.67,0.7,1.28,1.11,1.89
		c0.58,0.87,1.37,1.64,1.79,2.57c1.02,2.24,0.65,4.42-0.84,6.35c-0.63,0.82-1.43,1.51-2.18,2.24
		C113.58,110.02,113.76,110.29,114.37,110.64z"/>
	<path class="st0" d="M127.41,86.66c1.72,1.22,3.3,2.34,4.97,3.52c-0.72,0.45-1.4,0.79-2,1.25c-1.31,1-2.22,2.22-2.11,4
		c0.06,0.95,0.49,1.7,1.02,2.43c0.55,0.77,1.18,1.48,1.68,2.28c1.18,1.85,1.32,3.82,0.46,5.82c-0.69,1.6-1.67,3.04-2.89,4.29
		c-0.88,0.9-1.78,1.8-2.71,2.65c-0.54,0.49-0.82,0.48-1.38,0.01c-1.28-1.07-2.54-2.16-3.92-3.34c0.48-0.33,0.88-0.57,1.23-0.86
		c0.97-0.8,1.99-1.56,2.87-2.45c1.51-1.53,1.62-3.22,0.44-4.99c-0.52-0.79-1.1-1.54-1.67-2.29c-1.97-2.58-1.98-5.63,0-8.3
		C124.53,89.15,125.78,87.76,127.41,86.66z M125.12,110.66c0.57-0.63,1.14-1.24,1.69-1.88c2.59-3,3.1-6.75,0.28-9.96
		c-0.51-0.58-0.94-1.27-1.3-1.96c-0.98-1.93-0.64-3.75,0.67-5.4c0.39-0.49,0.9-0.88,1.36-1.32c0.11-0.11,0.32-0.16,0.36-0.28
		c0.05-0.17,0.06-0.44-0.04-0.56c-0.1-0.12-0.44-0.2-0.53-0.13c-0.49,0.39-1.01,0.78-1.39,1.27c-2.02,2.62-2.39,4.96-0.29,7.88
		c0.31,0.43,0.62,0.84,0.96,1.24c1.96,2.29,1.95,5.39,0.06,7.8c-0.61,0.77-1.36,1.44-2.07,2.12
		C124.52,109.85,124.33,110.14,125.12,110.66z"/>
	<path class="st0" d="M152.61,109.08c-1.6,1.45-3.03,2.75-4.47,4.05c-2.74-2.03-4.87-4.54-6.48-7.46c-1.48-2.68-1.73-5.56-0.93-8.53
		c0.94-3.49,2.98-6.2,5.87-8.3c0.97-0.7,2.02-1.28,3.18-2c0.86,1.91,1.66,3.7,2.29,5.5c-1.22,0.67-2.39,1.24-3.48,1.95
		c-2.38,1.54-3.11,3.88-2.81,6.55c0.22,2.02,0.96,3.87,2.45,5.32c0.7,0.69,1.5,1.29,2.31,1.85
		C151.08,108.39,151.73,108.63,152.61,109.08z M149,90.08c-1.49,0.6-2.6,1.55-3.59,2.65c-2.53,2.79-3.16,6.07-2.28,9.65
		c0.82,3.32,2.96,5.82,5.27,8.28c0.28-0.29,0.49-0.52,0.73-0.77c-0.16-0.18-0.28-0.35-0.44-0.47c-1.79-1.29-3.03-3.06-4.12-4.91
		c-2.39-4.05-1.58-8.87,1.71-11.71c0.78-0.68,1.71-1.2,2.6-1.75C149.31,90.8,149.3,90.54,149,90.08z"/>
	<path class="st0" d="M204.61,99.41c-0.15,3.62-0.93,6.68-2.88,9.35c-0.94,1.29-2.09,2.31-3.6,2.95c-2.8,1.17-5.28,0.55-7.47-1.29
		c-2.4-2.01-3.53-4.77-4.09-7.78c-0.13-0.72-0.26-1.45-0.28-2.18c-0.09-3.89,0.77-7.53,3.27-10.58c1.59-1.94,3.69-3.11,6.31-2.96
		c1.99,0.11,3.62,1.05,4.96,2.45c1.9,1.99,2.98,4.42,3.44,7.11C204.44,97.57,204.52,98.67,204.61,99.41z M188.41,99.79
		c0.1,0.78,0.17,1.78,0.36,2.75c0.45,2.25,1.34,4.32,3.04,5.91c1.81,1.69,4.34,2.24,6.75,0.54c1.03-0.72,1.77-1.64,2.34-2.71
		c1.68-3.12,2.08-6.42,1.31-9.88c-0.51-2.26-1.43-4.27-3.24-5.79c-1.08-0.91-2.32-1.5-3.73-1.4c-1.64,0.12-2.94,0.95-4.01,2.21
		C189.23,93.77,188.64,96.6,188.41,99.79z"/>
	<path class="st0" d="M139.73,86.91c-0.07,0.95-0.12,1.72-0.19,2.5c-0.02,0.21-0.1,0.41-0.12,0.61c-0.55,5.56-0.45,11.14-0.31,16.71
		c0.05,1.77,0.24,3.55,0.37,5.44c-1.12,0.16-2.11,0.06-3.09,0.08c-0.95,0.02-1.89,0-2.88,0c-0.3-0.75-0.11-1.48-0.09-2.2
		c0.02-0.83,0.17-1.66,0.22-2.5c0.11-1.73,0.29-3.46,0.27-5.18c-0.05-4.63-0.18-9.25-0.31-13.87c-0.05-1.59-0.1-1.59,1.47-1.59
		C136.55,86.91,138.02,86.91,139.73,86.91z M136.18,88.95c0,1.21,0,2.36,0,3.51c0,1.21,0.01,2.42,0.02,3.64
		c0,1.16,0.01,2.32,0.01,3.48c0,1.21,0,2.42-0.01,3.64c0,1.16-0.02,2.32-0.01,3.48c0.01,1.19-0.1,2.38,0.02,3.52
		c0.54,0.13,0.92,0.19,0.97-0.36c0.03-0.31,0-0.63,0-0.95c0-6.22,0-12.44,0-18.65c0-0.32,0.03-0.63,0-0.95
		C137.12,88.76,136.75,88.81,136.18,88.95z"/>
	<path class="st0" d="M184.34,34.98c-0.08,0.22-0.17,0.77-0.46,1.16c-0.77,1.01-1.71,1.85-2.88,2.39c-0.92,0.43-1.65,0.3-2.24-0.47
		c-0.89-1.16-1.82-2.28-2.92-3.25c-0.61-0.54-0.56-1,0.07-1.59c0.15-0.14,0.36-0.23,0.5-0.38c0.68-0.71,0.89-1.5,0.3-2.28
		c-0.8-1.06-0.6-2.3-0.91-3.44c-0.13-0.47,0-0.96,0.47-1.24c0.44-0.27,1.14-0.17,1.58,0.28c0.4,0.41,0.81,0.85,1.05,1.36
		c0.7,1.47,1.89,2.51,3.01,3.61c0.56,0.55,1.13,1.11,1.67,1.68C184.05,33.35,184.34,33.96,184.34,34.98z"/>
	<path class="st0" d="M172.34,26.52c0.06,0.82-0.13,1.56-0.61,2.23c-0.68,0.93-1.31,1.89-1.99,2.82c-0.5,0.68-1.19,1.12-2.03,0.89
		c-0.94-0.25-1.79-0.87-1.98-1.83c-0.18-0.91,0.43-1.68,1.15-2.26c0.37-0.29,0.81-0.48,1.19-0.75c0.87-0.6,1.02-1.18,0.57-2.16
		c-0.15-0.33-0.43-0.6-0.57-0.93c-0.3-0.71-0.65-1.43-0.8-2.18c-0.16-0.84,0.5-1.76,1.3-1.89c1.23-0.2,1.86-0.12,2.27,0.83
		C171.56,22.97,172.24,24.66,172.34,26.52z"/>
	<path class="st0" d="M117.06,72.65c0.51,0.39,0.99,0.79,1.51,1.14c0.6,0.41,1.2,0.86,1.87,1.13c1.63,0.67,2.34,1.82,2.14,3.64
		c-1.32,0.24-2.67,0.1-4.01,0.09c-0.68,0-0.99-0.55-1.13-1.13c-0.25-1.06-0.4-2.14-0.69-3.19C116.57,73.7,116.7,73.21,117.06,72.65z
		"/>
	<path class="st0" d="M113.7,72.2c0.72,2.28,1.35,4.28,2.03,6.46c-1.41,0-2.66,0-3.9,0c-0.56,0-0.91-0.27-0.93-0.84
		c-0.03-1.1-0.03-2.2-0.01-3.3c0.01-0.23,0.13-0.55,0.3-0.68C111.99,73.27,112.83,72.76,113.7,72.2z"/>
	<path class="st0" d="M183.76,39c0.55-1.56,1.92-1.69,3.12-1.67c1.4,0.02,2.63,0.67,3.04,2.4c-0.27,0.17-0.58,0.53-0.94,0.57
		c-1.69,0.2-3.31-0.09-4.83-0.89C184.02,39.34,183.94,39.19,183.76,39z"/>
	<path class="st0" d="M132.87,127.06c1.17,0.48,0.72,1.26,0.6,2.05c0.64-0.37,1.15-0.66,1.9-1.09c-0.22,0.72-0.36,1.19-0.56,1.88
		c0.58-0.22,1.05-0.66,1.47-0.21c0.31,0.34,0.6,0.72,0.79,1.13c0.07,0.15-0.13,0.5-0.31,0.65c-0.24,0.21-0.43,0.08-0.6-0.2
		c-0.1-0.17-0.38-0.33-0.58-0.32c-0.35,0.01-0.71,0.14-1.12,0.24c-0.1-0.25-0.19-0.48-0.32-0.81c-1.14,0.03-2.31,0.88-3.58,0.01
		c-0.07-0.49-0.16-1.09-0.26-1.77c0.95-0.23,1.26,0.58,1.84,1.13C132.41,128.78,132.63,127.97,132.87,127.06z"/>
	<path class="st0" d="M124.55,63.83c0.27-0.37,0.47-0.65,0.78-1.09c0,1.2,0,2.21,0,3.26c-1.51-0.81-3.04-2.44-3.75-4.1
		c0.74,0.49,1.29,0.85,2.17,1.44c-0.8-1.48-1.43-2.65-2.08-3.87c0.76,0.2,1.19,0.63,2.18,1.63
		C124.63,61.88,124.38,62.86,124.55,63.83z"/>
	<path class="st0" d="M125.67,74.38c-0.64-0.42-1.11-0.75-1.61-1.03c-0.86-0.5-1.25-1.19-1.2-2.21c0.03-0.6-0.13-1.22-0.24-2.04
		c0.38,0.21,0.6,0.3,0.77,0.44c0.36,0.31,0.65,0.74,1.05,0.95C126.01,71.35,125.94,72.71,125.67,74.38z"/>
	<path class="st0" d="M105.94,74.81c1.43,0.38,1.85-0.47,2.44-1.41c0.43,1.01,0.17,1.85,0.33,2.62c0.16,0.81,0.41,1.6,0.64,2.52
		c-0.37,0.02-0.76,0.16-0.91,0.02C107.4,77.62,106.53,76.54,105.94,74.81z"/>
	<path class="st0" d="M102.42,78.62c-0.25-1.2,0.5-1.76,1.09-2.5c0.76,0.68,1.16,1.5,1.6,2.45
		C104.21,78.74,103.37,78.66,102.42,78.62z"/>
	<path class="st0" d="M120.66,70.21c-0.59-0.56-1.18-1.12-1.82-1.72c0.37-0.67,0.82-1.1,1.59-1.31c0.54,0.92,0.67,1.84,0.56,2.81
		C120.88,70.07,120.77,70.14,120.66,70.21z"/>
	<path class="st0" d="M127.48,76.08c-0.21-1.24-0.16-2.14-0.09-3.13c0.86,0.56,0.86,0.56,1.51,1.95
		C128.52,75.22,128.12,75.55,127.48,76.08z"/>
	<path class="st0" d="M162.79,130.05c0.85,0.23,1.5,0.35,2.1,0.58c0.24,0.09,0.46,0.4,0.56,0.65c0.05,0.12-0.29,0.53-0.34,0.51
		C164.22,131.45,163.21,131.24,162.79,130.05z"/>
	<path class="st0" d="M123.71,77.1c0.97,0.07,1.63,0.5,2.1,1.36C124.06,78.77,124.06,78.77,123.71,77.1z"/>
	<path class="st0" d="M128.18,130.09c0.54,0.14,0.9,0.39,0.77,0.99c-0.09,0.41-0.72,0.82-1.2,0.77c-0.13-0.01-0.33-0.13-0.36-0.24
		c-0.04-0.17-0.02-0.41,0.07-0.56C127.65,130.73,127.91,130.45,128.18,130.09z"/>
	<path class="st0" d="M159.78,128.19c0.95-0.4,0.95-0.4,1.72,0.95C160.41,129.66,160.41,129.66,159.78,128.19z"/>
	<path class="st0" d="M159.79,130.57c0.61,0,0.99-0.1,1.23,0.04c0.14,0.08,0.11,0.55,0.07,0.83c-0.04,0.23-0.22,0.43-0.41,0.77
		C160.39,131.69,160.18,131.29,159.79,130.57z"/>
	<path class="st0" d="M125.48,55.98c1.1,1.15,0.15,2.06,0,2.97C125.48,58.04,125.48,57.13,125.48,55.98z"/>
	<path class="st0" d="M135.02,125.63c0.26,0.37,0.49,0.57,0.56,0.81c0.09,0.32-0.04,0.61-0.45,0.62c-0.39,0.01-0.79-0.12-0.76-0.53
		C134.39,126.26,134.73,126.02,135.02,125.63z"/>
	<path class="st0" d="M142.89,129.03c-0.45-0.07-0.75-0.57-0.64-0.99c0.04-0.14,0.28-0.31,0.42-0.31c0.43,0,0.9,0.47,0.77,0.76
		C143.33,128.74,143.05,128.89,142.89,129.03z"/>
	<path class="st0" d="M138.34,131.84c-0.06-0.11-0.22-0.26-0.23-0.41c-0.01-0.47,0.4-0.86,0.87-0.83c0.11,0.01,0.28,0.16,0.29,0.27
		C139.32,131.25,138.86,131.76,138.34,131.84z"/>
	<path class="st0" d="M126.13,128.94c-0.61,0.1-1.09,0.2-1.59,0.24c-0.1,0.01-0.22-0.19-0.35-0.3
		C125.42,128.33,125.42,128.33,126.13,128.94z"/>
	<path class="st0" d="M149.78,129.58c-0.25,0.13-0.49,0.36-0.65,0.32c-0.32-0.09-0.59-0.33-0.86-0.54
		c-0.03-0.02,0.08-0.29,0.18-0.38c0.08-0.07,0.28-0.11,0.37-0.06C149.12,129.09,149.4,129.31,149.78,129.58z"/>
	<path class="st0" d="M163.38,132.38c-0.39,0.42-0.75,0.63-1.11,0.25c-0.1-0.1-0.04-0.55,0.09-0.65
		C162.81,131.63,163.1,131.95,163.38,132.38z"/>
	<path class="st0" d="M144.64,128.97c0.18,0.33,0.35,0.53,0.4,0.75c0.04,0.17-0.05,0.4-0.16,0.54c-0.05,0.07-0.35,0.08-0.41,0.01
		c-0.14-0.17-0.3-0.41-0.28-0.61C144.21,129.46,144.43,129.27,144.64,128.97z"/>
	<path class="st0" d="M125.97,130.1c0.16,0.27,0.34,0.46,0.34,0.64c0,0.13-0.26,0.26-0.4,0.38c-0.14-0.19-0.32-0.36-0.4-0.57
		C125.49,130.48,125.75,130.31,125.97,130.1z"/>
	<path class="st0" d="M139.79,127.72c-0.18-0.09-0.26-0.13-0.34-0.18c0.15-0.23,0.3-0.47,0.47-0.68c0.01-0.01,0.21,0.13,0.32,0.2
		C140.08,127.28,139.93,127.51,139.79,127.72z"/>
	<path class="st0" d="M123.7,129.61c-0.25,0.27-0.4,0.53-0.5,0.51c-0.2-0.03-0.37-0.22-0.55-0.34c0.09-0.14,0.18-0.39,0.28-0.39
		C123.14,129.38,123.36,129.5,123.7,129.61z"/>
	<path d="M192.2,50.31c0.56-0.32,0.68-1.05,1.59-0.98c-0.36,1.76-1.39,2.93-2.65,3.99c-0.09-0.18-0.16-0.31-0.25-0.5
		c-0.43,0.29-0.86,0.58-1.3,0.87c0.46-1.45,0.89-2.81,1.33-4.18c0.06-0.2,0.06-0.48,0.2-0.57c0.23-0.17,0.55-0.33,0.81-0.29
		c0.37,0.06,0.64,0.34,0.5,0.8C192.34,49.73,192.27,50.02,192.2,50.31z"/>
	<path d="M181.25,65.16c1.44-1.61,2.89-3.13,4-5.01c-0.06,0.38-0.07,0.77-0.17,1.13c-0.26,0.9-0.53,1.81-0.87,2.68
		c-0.33,0.85-0.87,1.54-1.76,1.91C181.79,66.14,181.46,65.88,181.25,65.16z"/>
	<path d="M179.1,63.42c-0.46-0.8-0.09-1.41,0.26-1.97c0.87-1.4,1.79-2.78,2.68-4.16c0.3,0.89-0.1,1.78-0.37,2.65
		c-0.25,0.79-0.64,1.53-0.96,2.3C180.42,62.92,179.93,63.32,179.1,63.42z"/>
	<path d="M196.05,50.8c-0.12,0.08-0.29,0.14-0.36,0.26c-0.74,1.28-1.84,2.1-3.44,2.66c0.17-0.37,0.27-0.61,0.39-0.83
		c0.39-0.74,0.78-1.47,1.17-2.21c0.1-0.18,0.15-0.39,0.26-0.56c0.5-0.79,1.12-1.13,1.65-0.84c0.62,0.33,0.26,0.93,0.3,1.41
		c0,0.05-0.01,0.1-0.01,0.16L196.05,50.8z"/>
	<path d="M181.46,51.58c0.71-1.43,1.27-2.54,1.8-3.67c0.24-0.5,0.46-0.94,1.12-0.92c0.7,0.03,1.1,0.61,0.73,1.17
		c-0.46,0.69-0.99,1.37-1.59,1.94C182.98,50.63,182.29,51,181.46,51.58z"/>
	<path d="M179.95,51c0.58-1.48,1.16-2.96,1.75-4.44c0.13-0.32,0.34-0.53,0.71-0.44c0.43,0.1,0.74,0.55,0.56,0.95
		c-0.36,0.8-0.75,1.61-1.25,2.32c-0.44,0.63-1.05,1.14-1.59,1.71C180.08,51.08,180.02,51.04,179.95,51z"/>
	<path d="M183.97,51.88c0.62-1.23,1.25-2.45,1.88-3.67c0.07-0.13,0.19-0.25,0.31-0.35c0.38-0.32,0.76-0.3,1.12,0.03
		c0.35,0.31,0.29,0.65,0.03,0.97C186.37,50.01,185.32,51.07,183.97,51.88z"/>
	<path d="M178.32,58.01c-0.76,2.61-1.37,3.8-2.38,4.73c-0.97-0.54-1.13-0.96-0.55-1.6C176.3,60.13,177.24,59.16,178.32,58.01z"/>
	<path d="M179.24,58.93c-0.05,1.74-0.58,2.99-1.14,4.21c-0.25,0.55-0.88,0.83-1.13,0.59c-0.41-0.38-0.35-0.85-0.07-1.28
		C177.61,61.35,178.34,60.27,179.24,58.93z"/>
	<path d="M189.75,48.59c-0.67,1.34-1.84,2.22-3,3.36c0.18-0.95,1.19-3.25,1.54-3.65C188.69,47.87,188.94,47.91,189.75,48.59z"/>
	<path d="M199.66,51.06c0.35,0.39,0.59,0.66,0.86,0.97c-0.79,1.37-2.1,1.79-3.65,2.21C197.66,52.97,198.75,52.23,199.66,51.06z"/>
	<path d="M196.01,50.85c0.26-0.31,0.5-0.65,0.78-0.94c0.22-0.22,0.48-0.43,0.81-0.16c0.28,0.23,0.33,0.48,0.14,0.81
		c-0.61,1.11-1.31,2.13-2.68,2.73c0.36-0.9,0.67-1.69,0.99-2.48L196.01,50.85z"/>
	<path d="M170.85,57.91c-0.34-0.34-0.56-0.55-0.81-0.79c1.14-1.05,2.16-2,3.16-2.93C173.13,55.74,172.02,56.74,170.85,57.91z"/>
	<path d="M176.06,57.7c-0.32,0.9-0.58,1.86-0.99,2.75c-0.3,0.64-1.03,0.66-1.39,0.1c-0.12-0.18-0.17-0.58-0.06-0.7
		c0.72-0.8,1.49-1.55,2.26-2.31C175.88,57.54,175.96,57.6,176.06,57.7z"/>
	<path d="M178.49,64.46c1.26-0.68,2.37-1.28,3.48-1.88c0.06,0.06,0.11,0.11,0.17,0.17c-0.48,0.65-0.93,1.33-1.45,1.94
		C179.93,65.59,179.71,65.56,178.49,64.46z"/>
	<path d="M185.88,63.06c-0.32,0.87-0.62,1.76-0.98,2.62c-0.14,0.33-0.37,0.64-0.64,0.86c-0.15,0.12-0.55,0.12-0.69,0.01
		c-0.13-0.1-0.18-0.52-0.08-0.67c0.7-1.03,1.44-2.03,2.17-3.04C185.74,62.91,185.81,62.99,185.88,63.06z"/>
	<path d="M187.06,64.52c-0.32,0.99-0.63,1.99-0.96,2.98c-0.03,0.09-0.1,0.22-0.18,0.24c-0.23,0.08-0.52,0.21-0.69,0.13
		c-0.14-0.07-0.26-0.47-0.19-0.64c0.2-0.47,0.5-0.9,0.78-1.33c0.33-0.51,0.67-1,1.01-1.49C186.9,64.44,186.98,64.48,187.06,64.52z"
		/>
	<path d="M178.65,49.09c0.4-0.89,0.78-1.79,1.2-2.67c0.13-0.27,0.35-0.51,0.57-0.73c0.08-0.07,0.3-0.09,0.4-0.03
		c0.1,0.06,0.22,0.26,0.19,0.36c-0.13,0.39-0.25,0.81-0.48,1.15c-0.5,0.72-1.08,1.4-1.62,2.1
		C178.82,49.21,178.74,49.15,178.65,49.09z"/>
	<path d="M188.41,52.25c0.49-0.99,0.97-1.99,1.46-2.98c0.1,0.01,0.19,0.01,0.29,0.02c0.04,0.31,0.17,0.64,0.12,0.93
		C190.11,51.04,189.54,51.74,188.41,52.25z"/>
	<path d="M174.24,56.12c-0.44,0.87-0.88,1.75-1.33,2.62c-0.17,0.34-0.5,0.48-0.75,0.21c-0.15-0.16-0.17-0.63-0.04-0.82
		c0.38-0.56,0.86-1.06,1.3-1.58c0.17-0.2,0.34-0.4,0.51-0.6C174.04,56.01,174.14,56.06,174.24,56.12z"/>
	<path d="M170.69,53.65c-0.02,0.96-0.62,1.52-1.22,2.05c-0.11,0.09-0.49,0.08-0.51,0.02c-0.09-0.21-0.18-0.58-0.08-0.67
		C169.45,54.55,170.08,54.11,170.69,53.65z"/>
	<path d="M198.98,50.1c0.2,1.08-0.12,1.53-1.76,2.36C197.71,51.44,198.06,50.6,198.98,50.1z"/>
	<path d="M177.96,47.05c0.29-0.65,0.57-1.32,0.9-1.95c0.06-0.12,0.34-0.13,0.52-0.18c0.06,0.19,0.21,0.4,0.16,0.56
		C179.31,46.24,178.82,46.81,177.96,47.05z"/>
	<path d="M169.81,51.95c-0.09,1.1-0.56,1.57-1.04,2c-0.08,0.08-0.37-0.03-0.53-0.11c-0.05-0.03-0.04-0.32,0.04-0.4
		C168.69,52.99,169.15,52.58,169.81,51.95z"/>
	<path d="M177.46,45.68c-0.07-0.14-0.11-0.19-0.1-0.23c0.01-0.43,0.16-0.79,0.6-0.94c0.06-0.02,0.22,0.05,0.24,0.11
		c0.18,0.51-0.25,0.7-0.54,0.97C177.62,45.62,177.57,45.63,177.46,45.68z"/>
	<path d="M169.06,51.33c-0.33,0.35-0.67,0.71-1.1,1.15c-0.31-1.05,0.47-1.06,0.85-1.38C168.9,51.18,168.98,51.26,169.06,51.33z"/>
	<path d="M168.25,111.39c0.25-0.34,0.44-0.49,0.48-0.67c1-4.6,1.98-9.19,2.96-13.79c0.34-1.58,0.63-3.18,0.98-4.76
		c0.04-0.2,0.29-0.36,0.44-0.54c0.17,0.16,0.45,0.29,0.51,0.48c0.31,1.1,0.58,2.22,0.85,3.34c1.18,4.87,2.36,9.75,3.54,14.62
		c0.1,0.4,0.26,0.78,0.51,1.51c1.95-8.89,3.66-17.48,5.35-26.18c0.3,0,0.64,0,1.05,0c0,0.41,0.07,0.78-0.01,1.12
		c-1.1,4.73-2.25,9.45-3.32,14.19c-0.82,3.62-1.55,7.26-2.32,10.89c-0.12,0.56-0.23,1.13-0.39,1.68c-0.03,0.1-0.25,0.2-0.38,0.2
		c-0.13,0-0.35-0.09-0.39-0.19c-0.15-0.44-0.26-0.9-0.37-1.36c-1.42-5.95-2.83-11.89-4.25-17.84c-0.03-0.14-0.17-0.25-0.41-0.56
		c-1.47,6.75-2.9,13.32-4.33,19.9c-0.65,0.11-0.78-0.26-0.86-0.7c-0.21-1.18-0.41-2.37-0.65-3.55c-0.75-3.74-1.48-7.48-2.28-11.21
		c-0.81-3.78-1.68-7.55-2.53-11.32c-0.08-0.35-0.19-0.7-0.31-1.15c0.41-0.07,0.74-0.12,1.06-0.17
		C164.87,94,166.54,102.6,168.25,111.39z"/>
	<path d="M70.31,104.53c-0.63,0.84-1.08,1.53-1.62,2.14c-0.93,1.07-1.84,2.15-3.18,2.78c-2.13,1.01-4.14-0.58-4.1-2.51
		c0.12-5.74,0.08-11.48,0.1-17.23c0-0.16-0.04-0.34,0.03-0.47c0.08-0.15,0.25-0.25,0.39-0.38c0.13,0.15,0.38,0.3,0.38,0.45
		c-0.07,3.73-0.15,7.47-0.25,11.2c-0.06,2.1-0.18,4.19-0.21,6.29c-0.02,1.39,0.64,2.14,1.95,2.48c0.73,0.19,1.33-0.16,1.91-0.49
		c1.46-0.83,2.34-2.23,3.37-3.5c0.07-0.08,0.09-0.19,0.16-0.27c0.94-1.03,1.2-2.22,1.16-3.61c-0.09-3.74-0.05-7.48-0.06-11.22
		c0-0.37,0-0.74,0.05-1.1c0.01-0.08,0.22-0.17,0.36-0.2c0.07-0.01,0.22,0.09,0.23,0.16c0.04,0.26,0.05,0.52,0.05,0.78
		c0,6.43,0.01,12.85-0.01,19.28c0,0.38,0.36,1.12-0.39,1.1c-0.5-0.01-0.29-0.68-0.3-1.05C70.3,107.7,70.31,106.24,70.31,104.53z"/>
	<path d="M45.67,111.94c0.18-0.36,0.27-0.55,0.37-0.74c0.09-0.01,0.19-0.07,0.26-0.04c1.36,0.53,2.77,0.55,4.19,0.46
		c1.47-0.1,2.57-1.11,2.75-2.56c0.17-1.35,0.33-2.71,0.34-4.07c0.03-4.05,0.03-8.11-0.07-12.16c-0.05-2.25-0.34-4.49-0.51-6.73
		c-0.01-0.2-0.01-0.51,0.1-0.58c0.18-0.11,0.46-0.09,0.68-0.04c0.07,0.01,0.13,0.27,0.14,0.41c0.09,1.46,0.23,2.93,0.25,4.39
		c0.05,4.69,0.08,9.37,0.05,14.06c-0.01,1.57-0.15,3.15-0.36,4.7c-0.2,1.5-1,2.6-2.53,3.1C49.45,112.76,47.64,112.51,45.67,111.94z"
		/>
	<path d="M214.11,101.61c0.94,2.4,1.88,4.78,2.81,7.17c0.11,0.29,0.28,0.58,0.3,0.88c0.01,0.2-0.13,0.53-0.3,0.6
		c-0.14,0.06-0.49-0.09-0.61-0.25c-0.18-0.24-0.24-0.57-0.35-0.87c-0.75-2.12-1.48-4.24-2.24-6.36c-0.27-0.76-0.42-0.81-1.16-0.54
		c-1.03,0.38-2.05,0.8-3.1,1.11c-0.63,0.19-0.82,0.52-0.81,1.13c0.05,1.68,0.06,3.37,0.07,5.06c0,0.2-0.03,0.41-0.05,0.69
		c-0.27,0.03-0.52,0.05-0.79,0.07c-0.07-0.18-0.18-0.32-0.18-0.45c0.02-2.84,0.04-5.69,0.09-8.53c0.05-2.94,0.15-5.88,0.18-8.82
		c0.01-0.89-0.16-1.77-0.18-2.66c-0.02-0.79,0.13-0.96,0.87-1c1.47-0.08,2.92-0.03,4.36,0.39c3.98,1.16,5.46,5.68,3.98,8.88
		c-0.53,1.15-1.17,2.23-2.3,2.93C214.51,101.19,214.34,101.4,214.11,101.61z M208.75,103.26c1.75-0.81,3.38-1.34,4.83-2.3
		c2.66-1.76,3.59-3.86,3.04-6.95c-0.24-1.37-0.96-2.44-2.08-3.21c-1.43-0.98-3.12-1.16-4.79-1.26c-0.9-0.05-1.09,0.25-1.09,1.28
		c-0.01,3.84,0,7.68,0.01,11.53C208.67,102.54,208.7,102.74,208.75,103.26z"/>
	<path d="M78,110.23c0-2.13-0.02-4.17,0.01-6.22c0.05-3.68,0.16-7.35,0.2-11.03c0.01-1.04-0.16-2.09-0.18-3.13
		c-0.02-0.79,0.14-0.94,0.87-1c1.48-0.12,2.94,0.01,4.36,0.41c3.95,1.11,5.47,5.61,3.98,8.87c-0.53,1.15-1.17,2.23-2.3,2.93
		c-0.22,0.13-0.39,0.35-0.61,0.56c0.94,2.4,1.88,4.78,2.81,7.17c0.11,0.29,0.28,0.58,0.3,0.88c0.01,0.2-0.13,0.53-0.3,0.6
		c-0.14,0.06-0.49-0.09-0.6-0.25c-0.18-0.24-0.24-0.57-0.35-0.87c-0.75-2.12-1.49-4.24-2.24-6.36c-0.08-0.24-0.23-0.45-0.38-0.74
		c-1.43,0.48-2.81,0.94-4.17,1.41c-0.49,0.17-0.51,0.59-0.5,1.04c0.03,1.47,0.04,2.95,0.06,4.42c0,0.32,0.04,0.63,0.01,0.95
		C78.89,110.41,78.5,110.33,78,110.23z M78.89,103.25c1.31-0.55,2.41-1,3.49-1.49c1.26-0.57,2.34-1.39,3.26-2.42
		c2.56-2.87,1.54-8.3-2.57-9.29c-0.76-0.18-1.54-0.27-2.3-0.46c-0.71-0.17-1.33-0.08-1.89,0.33C78.89,94.29,78.89,98.6,78.89,103.25
		z"/>
	<path d="M240.36,110c0.55-6.88,0.22-13.66,0.29-20.44c4.1-0.63,7.62,0.49,10.45,3.32c3.62,3.62,3.72,8.69,1.11,12.38
		c-1.71,2.41-4.1,3.86-6.92,4.64c-0.25,0.07-0.52,0.1-0.78,0.1C243.2,110,241.88,110,240.36,110z M241.67,109.03
		c1.2,0,2.35,0.21,3.39-0.04c3.02-0.73,5.53-2.32,6.97-5.17c1.58-3.15,1.51-6.3-0.63-9.2c-2.2-2.99-5.18-4.5-8.96-4.26
		c-0.96,0.06-1.08,0.12-1.08,1.12C241.36,97.27,241.11,103.06,241.67,109.03z"/>
	<path d="M98.93,88.9c1.14,0,2.18,0,3.3,0c0.12,0.28,0.31,0.55,0.36,0.84c1.28,6.77,2.55,13.54,3.81,20.32
		c0.01,0.06-0.13,0.14-0.27,0.29c-0.87-0.79-0.61-1.93-0.91-2.86c-0.31-0.98-0.43-2.03-0.66-3.16c-2.56,0-5.02,0-7.49,0
		c-0.45,0-0.66,0.28-0.72,0.68c-0.23,1.39-0.45,2.79-0.69,4.18c-0.05,0.3-0.08,0.65-0.25,0.88c-0.11,0.15-0.45,0.21-0.68,0.18
		c-0.14-0.02-0.32-0.26-0.34-0.43c-0.04-0.25,0.01-0.53,0.06-0.78c0.9-3.97,1.84-7.93,2.71-11.91c0.51-2.35,0.91-4.72,1.38-7.08
		C98.63,89.67,98.8,89.29,98.93,88.9z M104.44,103.63c0.04-0.2,0.07-0.26,0.06-0.3c-0.83-4.25-1.67-8.5-2.49-12.76
		c-0.1-0.54-0.31-0.88-0.92-0.84c-0.26,0.02-0.53,0-0.79,0c-0.9,0.03-0.94,0.08-1.12,0.96c-0.39,1.95-0.8,3.89-1.18,5.84
		c-0.45,2.34-0.87,4.68-1.32,7.1C99.32,103.63,101.84,103.63,104.44,103.63z"/>
	<path d="M234.6,108.87c0,0.37,0,0.67,0,1.07c-3.46,0-6.86,0-10.38,0c-0.02-0.32-0.06-0.67-0.06-1.02c0-6.27,0.01-12.53,0.01-18.8
		c0-0.31-0.03-0.64,0.04-0.94c0.03-0.14,0.28-0.31,0.44-0.31c0.15,0,0.43,0.16,0.45,0.28c0.06,0.41,0.04,0.84,0.04,1.26
		c0,5.58,0,11.16,0,16.74c0,0.57,0,1.15,0,1.87c1.65,0.11,3.21,0.08,4.77,0.04C231.42,109.03,232.94,108.94,234.6,108.87z"/>
	<path d="M114.37,110.64c-0.61-0.35-0.79-0.61-0.33-1.05c0.75-0.72,1.55-1.42,2.18-2.24c1.49-1.93,1.86-4.11,0.84-6.35
		c-0.43-0.94-1.21-1.7-1.79-2.57c-0.41-0.61-0.85-1.22-1.11-1.89c-0.92-2.47,0.33-5.93,2.59-7.29c0.16-0.09,0.45,0.05,0.68,0.08
		c-0.04,0.23,0,0.54-0.14,0.68c-0.47,0.49-1.07,0.86-1.5,1.38c-1.34,1.63-1.8,3.44-0.74,5.52c0.35,0.69,0.79,1.37,1.3,1.96
		c2.75,3.16,2.31,6.82-0.22,9.84C115.56,109.37,114.94,110.01,114.37,110.64z"/>
	<path d="M125.12,110.66c-0.79-0.51-0.6-0.81-0.24-1.16c0.71-0.69,1.47-1.35,2.07-2.12c1.89-2.41,1.9-5.51-0.06-7.8
		c-0.34-0.4-0.66-0.82-0.96-1.24c-2.09-2.92-1.73-5.27,0.29-7.88c0.38-0.49,0.9-0.88,1.39-1.27c0.09-0.07,0.43,0.01,0.53,0.13
		c0.1,0.12,0.09,0.39,0.04,0.56c-0.04,0.12-0.25,0.17-0.36,0.28c-0.46,0.43-0.97,0.83-1.36,1.32c-1.3,1.65-1.65,3.47-0.67,5.4
		c0.35,0.7,0.78,1.38,1.3,1.96c2.82,3.21,2.3,6.96-0.28,9.96C126.27,109.41,125.69,110.03,125.12,110.66z"/>
	<path d="M149,90.08c0.3,0.46,0.31,0.72-0.13,0.99c-0.89,0.54-1.81,1.07-2.6,1.75c-3.29,2.84-4.1,7.66-1.71,11.71
		c1.09,1.85,2.33,3.62,4.12,4.91c0.16,0.12,0.28,0.29,0.44,0.47c-0.24,0.25-0.45,0.48-0.73,0.77c-2.31-2.46-4.45-4.97-5.27-8.28
		c-0.88-3.58-0.25-6.86,2.28-9.65C146.4,91.63,147.51,90.68,149,90.08z"/>
	<path d="M188.41,99.79c0.23-3.19,0.82-6.02,2.83-8.38c1.07-1.26,2.37-2.09,4.01-2.21c1.41-0.1,2.65,0.49,3.73,1.4
		c1.8,1.53,2.73,3.53,3.24,5.79c0.78,3.46,0.37,6.76-1.31,9.88c-0.58,1.07-1.31,1.99-2.34,2.71c-2.41,1.7-4.94,1.15-6.75-0.54
		c-1.71-1.59-2.59-3.66-3.04-5.91C188.58,101.56,188.51,100.57,188.41,99.79z M189.25,99.47c0.16,1.24,0.23,2.51,0.5,3.73
		c0.36,1.66,1.09,3.19,2.24,4.45c1.6,1.75,3.92,2.55,6.3,0.68c1.2-0.94,1.96-2.15,2.5-3.54c1.1-2.82,1.24-5.72,0.57-8.65
		c-0.46-2.03-1.36-3.85-3.01-5.22c-1.11-0.92-2.36-1.46-3.78-1.01c-1.21,0.38-2.25,1.05-3.02,2.15
		C189.99,94.29,189.33,96.76,189.25,99.47z"/>
	<path d="M136.18,88.95c0.57-0.14,0.94-0.19,0.99,0.36c0.03,0.31,0,0.63,0,0.95c0,6.22,0,12.44,0,18.65c0,0.32,0.02,0.63,0,0.95
		c-0.05,0.55-0.43,0.49-0.97,0.36c-0.12-1.14-0.01-2.34-0.02-3.52c-0.01-1.16,0.01-2.32,0.01-3.48c0-1.21,0.01-2.42,0.01-3.64
		c0-1.16,0-2.32-0.01-3.48c0-1.21-0.01-2.42-0.02-3.64C136.17,91.31,136.18,90.16,136.18,88.95z"/>
	<path class="st0" d="M208.75,103.26c-0.05-0.51-0.08-0.72-0.08-0.92c-0.01-3.84-0.02-7.68-0.01-11.53c0-1.03,0.19-1.33,1.09-1.28
		c1.67,0.1,3.36,0.28,4.79,1.26c1.12,0.77,1.84,1.84,2.08,3.21c0.54,3.09-0.39,5.19-3.04,6.95
		C212.13,101.92,210.49,102.45,208.75,103.26z M210.79,91.76c-0.23,1.21-0.25,6.29-0.03,7.76c1.95-0.4,3.34-2.04,3.37-3.81
		C214.16,93.86,212.98,91.81,210.79,91.76z"/>
	<path class="st0" d="M78.89,103.25c0-4.65,0-8.96,0-13.33c0.56-0.41,1.18-0.51,1.89-0.33c0.76,0.18,1.54,0.28,2.3,0.46
		c4.1,0.99,5.12,6.42,2.57,9.29c-0.92,1.04-2,1.86-3.26,2.42C81.3,102.25,80.2,102.69,78.89,103.25z M80.95,99.55
		c2.43-0.63,3.67-2.41,3.31-4.73c-0.28-1.84-1.67-3.06-3.45-2.96c0,2.41,0,4.83,0.01,7.25C80.83,99.26,80.91,99.41,80.95,99.55z"/>
	<path class="st0" d="M241.67,109.03c-0.56-5.97-0.31-11.76-0.3-17.55c0-1,0.12-1.06,1.08-1.12c3.78-0.25,6.75,1.27,8.96,4.26
		c2.13,2.9,2.21,6.05,0.63,9.2c-1.44,2.86-3.95,4.44-6.97,5.17C244.01,109.24,242.87,109.03,241.67,109.03z M243.84,106.24
		c4.75-0.27,6.61-3.43,6.67-6.28c0.08-3.78-2.96-6.67-6.67-6.86C243.84,97.44,243.84,101.78,243.84,106.24z"/>
	<path class="st0" d="M104.44,103.63c-2.6,0-5.11,0-7.76,0c0.45-2.42,0.87-4.77,1.32-7.1c0.38-1.95,0.79-3.89,1.18-5.84
		c0.18-0.88,0.22-0.93,1.12-0.96c0.26-0.01,0.53,0.01,0.79,0c0.6-0.04,0.81,0.3,0.92,0.84c0.82,4.26,1.66,8.51,2.49,12.76
		C104.5,103.38,104.48,103.43,104.44,103.63z M102.06,101.4c-0.25-1.34-0.4-2.62-0.74-3.85c-0.33-1.19-0.23-2.51-1.07-3.7
		c-0.48,2.6-0.94,5.04-1.41,7.56C99.95,101.4,100.92,101.4,102.06,101.4z"/>
	<path class="st0" d="M189.25,99.47c0.08-2.71,0.74-5.18,2.3-7.42c0.77-1.1,1.81-1.77,3.02-2.15c1.42-0.45,2.67,0.08,3.78,1.01
		c1.65,1.37,2.54,3.2,3.01,5.22c0.67,2.92,0.52,5.82-0.57,8.65c-0.54,1.39-1.3,2.6-2.5,3.54c-2.37,1.86-4.69,1.07-6.3-0.68
		c-1.15-1.26-1.88-2.79-2.24-4.45C189.48,101.98,189.41,100.71,189.25,99.47z M199,99.55c-0.15-0.98-0.24-1.97-0.47-2.93
		c-0.29-1.24-0.89-2.37-1.73-3.3c-0.9-0.99-1.83-1.01-2.55-0.1c-0.52,0.65-1.08,1.3-1.41,2.05c-1.35,3.04-1.26,6.09,0.18,9.08
		c0.31,0.65,0.75,1.26,1.25,1.78c0.64,0.66,1.57,0.64,2.25,0.03c0.31-0.27,0.56-0.62,0.8-0.96C198.54,103.52,198.93,101.6,199,99.55
		z"/>
	<path d="M210.79,91.76c2.19,0.06,3.37,2.1,3.34,3.95c-0.03,1.77-1.42,3.42-3.37,3.81C210.53,98.05,210.55,92.97,210.79,91.76z"/>
	<path d="M80.95,99.55c-0.04-0.14-0.13-0.29-0.13-0.43c-0.01-2.42-0.01-4.84-0.01-7.25c1.78-0.1,3.16,1.12,3.45,2.96
		C84.62,97.14,83.39,98.92,80.95,99.55z"/>
	<path d="M243.84,106.24c0-4.46,0-8.8,0-13.15c3.71,0.19,6.74,3.08,6.67,6.86C250.45,102.82,248.59,105.97,243.84,106.24z"/>
	<path d="M102.06,101.4c-1.14,0-2.11,0-3.22,0c0.47-2.52,0.92-4.95,1.41-7.56c0.83,1.19,0.73,2.52,1.07,3.7
		C101.67,98.77,101.82,100.06,102.06,101.4z"/>
	<path d="M199,99.55c-0.07,2.05-0.46,3.97-1.67,5.65c-0.24,0.34-0.5,0.68-0.8,0.96c-0.68,0.61-1.62,0.63-2.25-0.03
		c-0.5-0.52-0.94-1.13-1.25-1.78c-1.44-2.99-1.53-6.04-0.18-9.08c0.33-0.75,0.89-1.4,1.41-2.05c0.72-0.9,1.65-0.89,2.55,0.1
		c0.85,0.93,1.44,2.07,1.73,3.3C198.76,97.58,198.85,98.58,199,99.55z"/>
</g>
</svg>
