<?xml version="1.0" encoding="utf-8"?>
<!-- Generator: Adobe Illustrator 24.0.1, SVG Export Plug-In . SVG Version: 6.00 Build 0)  -->
<svg version="1.1" id="Calque_1" xmlns="http://www.w3.org/2000/svg" xmlns:xlink="http://www.w3.org/1999/xlink" x="0px" y="0px"
	 viewBox="0 0 38 29" style="enable-background:new 0 0 38 29;" xml:space="preserve">
<style type="text/css">
	.st0{fill:#FFA000;}
	.st1{fill:#FFC107;}
	.st2{fill:#FFFFFF;}
</style>
<g>
	<g>
		<g>
			<path class="st0" d="M15.15,0H5.22c-0.28,0-0.5,0.16-0.5,0.36v5.27h10.93V0.36C15.65,0.16,15.42,0,15.15,0z"/>
			<path class="st0" d="M32.79,0h-9.88c-0.27,0-0.5,0.16-0.5,0.36v5.27h10.87V0.36C33.28,0.16,33.06,0,32.79,0z"/>
		</g>
	</g>
	<path class="st1" d="M36.92,29H1.08C0.49,29,0,28.51,0,27.92V5.66c0-0.6,0.49-1.08,1.08-1.08h35.83c0.6,0,1.08,0.49,1.08,1.08
		v22.26C38,28.51,37.51,29,36.92,29z"/>
</g>
<path class="st2" d="M25.72,22.76L22.3,19.2c0.88-1.04,1.36-2.36,1.36-3.72c0-3.19-2.6-5.79-5.79-5.79s-5.79,2.6-5.79,5.79
	s2.6,5.79,5.79,5.79c1.2,0,2.34-0.36,3.32-1.05l3.44,3.58c0.14,0.15,0.34,0.23,0.54,0.23c0.2,0,0.38-0.07,0.52-0.21
	C26,23.54,26.01,23.06,25.72,22.76z M17.87,11.2c2.36,0,4.28,1.92,4.28,4.28s-1.92,4.28-4.28,4.28s-4.28-1.92-4.28-4.28
	S15.51,11.2,17.87,11.2z"/>
</svg>
